<svg viewBox="0 0 740 845" fill="none" xmlns="http://www.w3.org/2000/svg">
<path d="M137.853 259.627C125.44 274.027 128.4 296.92 144.466 310.76C160.533 324.614 183.613 324.187 196.013 309.8C208.426 295.4 205.466 272.507 189.4 258.654C173.346 244.8 150.266 245.24 137.853 259.627Z" fill="white"/>
<path d="M297.4 183.453C316.386 179.267 328 158.693 323.333 137.507C318.653 116.307 299.48 102.507 280.493 106.693C261.507 110.88 249.893 131.453 254.56 152.653C259.24 173.84 278.413 187.64 297.4 183.453" fill="white"/>
<path d="M508.786 136.08C492.76 125.987 470.64 132.28 459.36 150.174C448.08 168.054 451.92 190.734 467.933 200.84C483.96 210.947 506.08 204.64 517.36 186.76C528.64 168.88 524.8 146.187 508.786 136.08Z" fill="white"/>
<path d="M608.533 338.72C625.8 326.613 631 304.267 620.146 288.8C609.306 273.333 586.52 270.6 569.253 282.707C552 294.814 546.786 317.16 557.64 332.627C568.48 348.094 591.266 350.827 608.533 338.72Z" fill="white"/>
<path d="M442.426 537.32C374.307 556.36 316.706 539.613 315.6 539.28C305.44 536.227 294.666 541.893 291.546 552.053C288.413 562.227 294.12 573.013 304.293 576.147C306.08 576.68 333.893 585.013 374.693 585.013C397.44 585.013 424.24 582.427 452.8 574.44C463.053 571.574 469.04 560.934 466.173 550.694C463.306 540.44 452.706 534.453 442.426 537.32" fill="white"/>
<path d="M694.613 213.213C810.94 338.62 671.733 448.533 630.853 483.32L630.712 483.44C626.204 487.274 621.3 491.444 618.16 494.36C617.04 527.667 629.866 718.453 640.146 841.88L607.226 844.613C595.253 701.013 582.747 514.053 585.627 485.693C585.933 482.653 587.066 479.773 588.92 477.347C592.641 472.46 599.256 466.823 609.236 458.32L609.44 458.147C645.333 427.627 720 364.107 702.453 290.173C684.973 216.493 607.333 206.76 606.546 206.667C601.973 206.147 597.826 203.733 595.107 200.027C592.387 196.32 591.346 191.64 592.213 187.133C592.853 183.733 607.293 102.747 546.173 68.2133C528.96 58.4933 511.733 53.5601 494.946 53.5601C443.56 53.5601 409.147 99.8268 408.8 100.294C405.24 105.147 399.333 107.707 393.346 106.947C387.373 106.187 382.28 102.253 380.066 96.6534C367.586 65.04 331.92 33.04 287.866 33.04C276.493 33.04 264.973 35.16 253.6 39.3199C201.666 56.2533 177.426 96.8801 184.773 153.907C185.466 159.307 183.453 164.72 179.386 168.347C175.32 171.973 169.733 173.347 164.426 172.053C156.387 170.053 148.266 169.04 140.293 169.04C82.7865 169.04 36.3998 222.987 33.3331 271.213C28.0531 354.4 93.7731 413.253 133.413 440.92C138.026 444.133 140.693 449.48 140.466 455.107C139.786 472.653 133.293 632.573 116.413 841.88L83.4798 839.227C98.6931 650.6 105.44 502.333 107.093 462.693C61.4665 429.107 -5.60022 363.2 0.373112 269.12C1.01311 258.973 3.21314 248.653 6.53314 238.453C6.53314 238.453 33.3331 139.12 140.293 136.013C143.68 136.013 147.08 136.147 150.493 136.413C150.053 84.1466 184.773 5.12006 287.866 0C338.093 0 377.52 29.2001 399.053 62.0534C417.76 44.3201 516.47 -20.8799 593.027 63.8401C626.787 101.2 628.44 151.493 626.613 177.093C643.68 181.507 672.866 189.768 694.613 213.213Z" fill="white"/>
<mask id="path-7-inside-1" fill="white">
<path d="M458.719 286.347L457.292 285.147C452.825 281.4 448.799 277.587 444.892 273.907C428.212 258.187 409.305 240.373 371.132 240C371.079 240 369.985 240 369.919 240C332.545 240 313.519 257.267 296.732 272.493C292.759 276.093 288.665 279.827 284.132 283.48L282.679 284.653C264.479 299.307 226.599 329.8 243.039 374.933C261.159 424.667 310.812 433.707 337.412 424.36C347.012 420.973 362.799 419.4 369.425 418.987C375.785 419.507 391.785 421.4 401.319 424.973C407.545 427.307 415.092 428.533 423.145 428.533C423.159 428.533 423.159 428.533 423.159 428.533C449.119 428.533 482.052 415.093 496.612 377.373C513.905 332.56 476.639 301.347 458.719 286.347"/>
</mask>
<path d="M457.292 285.147L475.929 262.928L475.944 262.941L475.959 262.953L457.292 285.147ZM444.892 273.907L425.007 295.016L425.002 295.011L444.892 273.907ZM371.132 240V211H371.274L371.416 211.001L371.132 240ZM296.732 272.493L316.216 293.973L316.21 293.979L316.204 293.984L296.732 272.493ZM284.132 283.48L265.916 260.915L265.925 260.908L265.935 260.9L284.132 283.48ZM282.679 284.653L300.895 307.218L300.88 307.23L300.865 307.242L282.679 284.653ZM243.039 374.933L215.791 384.861L215.79 384.859L243.039 374.933ZM337.412 424.36L347.06 451.708L347.043 451.714L347.026 451.72L337.412 424.36ZM369.425 418.987L367.62 390.043L369.706 389.913L371.788 390.083L369.425 418.987ZM401.319 424.973L391.142 452.129L391.14 452.128L401.319 424.973ZM496.612 377.373L523.667 387.814L523.666 387.816L496.612 377.373ZM440.052 308.54L438.625 307.34L475.959 262.953L477.386 264.153L440.052 308.54ZM438.655 307.365C433.432 302.984 428.784 298.574 425.007 295.016L464.776 252.797C468.813 256.6 472.218 259.816 475.929 262.928L438.655 307.365ZM425.002 295.011C409.211 280.129 397.341 269.258 370.848 268.999L371.416 211.001C421.269 211.489 447.213 236.244 464.782 252.802L425.002 295.011ZM371.132 269C371.132 269 371.132 269 371.132 269C371.132 269 371.131 269 371.131 269C371.131 269 371.131 269 371.131 269C371.131 269 371.131 269 371.131 269C371.13 269 371.13 269 371.13 269C371.13 269 371.13 269 371.13 269C371.13 269 371.129 269 371.129 269C371.129 269 371.129 269 371.129 269C371.129 269 371.128 269 371.128 269C371.128 269 371.128 269 371.128 269C371.128 269 371.127 269 371.127 269C371.127 269 371.127 269 371.127 269C371.126 269 371.126 269 371.126 269C371.126 269 371.126 269 371.125 269C371.125 269 371.125 269 371.125 269C371.124 269 371.124 269 371.124 269C371.124 269 371.124 269 371.123 269C371.123 269 371.123 269 371.123 269C371.122 269 371.122 269 371.122 269C371.122 269 371.121 269 371.121 269C371.121 269 371.121 269 371.12 269C371.12 269 371.12 269 371.12 269C371.119 269 371.119 269 371.119 269C371.118 269 371.118 269 371.118 269C371.118 269 371.117 269 371.117 269C371.117 269 371.116 269 371.116 269C371.116 269 371.115 269 371.115 269C371.115 269 371.115 269 371.114 269C371.114 269 371.114 269 371.113 269C371.113 269 371.113 269 371.112 269C371.112 269 371.112 269 371.111 269C371.111 269 371.111 269 371.11 269C371.11 269 371.11 269 371.109 269C371.109 269 371.109 269 371.108 269C371.108 269 371.107 269 371.107 269C371.107 269 371.106 269 371.106 269C371.106 269 371.105 269 371.105 269C371.105 269 371.104 269 371.104 269C371.103 269 371.103 269 371.103 269C371.102 269 371.102 269 371.101 269C371.101 269 371.101 269 371.1 269C371.1 269 371.099 269 371.099 269C371.099 269 371.098 269 371.098 269C371.097 269 371.097 269 371.097 269C371.096 269 371.096 269 371.095 269C371.095 269 371.094 269 371.094 269C371.093 269 371.093 269 371.093 269C371.092 269 371.092 269 371.091 269C371.091 269 371.09 269 371.09 269C371.089 269 371.089 269 371.089 269C371.088 269 371.088 269 371.087 269C371.087 269 371.086 269 371.086 269C371.085 269 371.085 269 371.084 269C371.084 269 371.083 269 371.083 269C371.082 269 371.082 269 371.081 269C371.081 269 371.08 269 371.08 269C371.079 269 371.079 269 371.078 269C371.078 269 371.077 269 371.077 269C371.076 269 371.076 269 371.075 269C371.075 269 371.074 269 371.074 269C371.073 269 371.073 269 371.072 269C371.072 269 371.071 269 371.071 269C371.07 269 371.069 269 371.069 269C371.068 269 371.068 269 371.067 269C371.067 269 371.066 269 371.066 269C371.065 269 371.065 269 371.064 269C371.063 269 371.063 269 371.062 269C371.062 269 371.061 269 371.061 269C371.06 269 371.059 269 371.059 269C371.058 269 371.058 269 371.057 269C371.056 269 371.056 269 371.055 269C371.055 269 371.054 269 371.054 269C371.053 269 371.052 269 371.052 269C371.051 269 371.051 269 371.05 269C371.049 269 371.049 269 371.048 269C371.047 269 371.047 269 371.046 269C371.046 269 371.045 269 371.044 269C371.044 269 371.043 269 371.043 269C371.042 269 371.041 269 371.041 269C371.04 269 371.039 269 371.039 269C371.038 269 371.037 269 371.037 269C371.036 269 371.035 269 371.035 269C371.034 269 371.034 269 371.033 269C371.032 269 371.032 269 371.031 269C371.03 269 371.03 269 371.029 269C371.028 269 371.028 269 371.027 269C371.026 269 371.026 269 371.025 269C371.024 269 371.023 269 371.023 269C371.022 269 371.021 269 371.021 269C371.02 269 371.019 269 371.019 269C371.018 269 371.017 269 371.017 269C371.016 269 371.015 269 371.014 269C371.014 269 371.013 269 371.012 269C371.012 269 371.011 269 371.01 269C371.01 269 371.009 269 371.008 269C371.007 269 371.007 269 371.006 269C371.005 269 371.004 269 371.004 269C371.003 269 371.002 269 371.002 269C371.001 269 371 269 370.999 269C370.999 269 370.998 269 370.997 269C370.996 269 370.996 269 370.995 269C370.994 269 370.993 269 370.993 269C370.992 269 370.991 269 370.99 269C370.99 269 370.989 269 370.988 269C370.987 269 370.987 269 370.986 269C370.985 269 370.984 269 370.983 269C370.983 269 370.982 269 370.981 269C370.98 269 370.98 269 370.979 269C370.978 269 370.977 269 370.976 269C370.976 269 370.975 269 370.974 269C370.973 269 370.973 269 370.972 269C370.971 269 370.97 269 370.969 269C370.969 269 370.968 269 370.967 269C370.966 269 370.965 269 370.964 269C370.964 269 370.963 269 370.962 269C370.961 269 370.96 269 370.96 269C370.959 269 370.958 269 370.957 269C370.956 269 370.956 269 370.955 269C370.954 269 370.953 269 370.952 269C370.951 269 370.951 269 370.95 269C370.949 269 370.948 269 370.947 269C370.946 269 370.946 269 370.945 269C370.944 269 370.943 269 370.942 269C370.941 269 370.94 269 370.94 269C370.939 269 370.938 269 370.937 269C370.936 269 370.935 269 370.934 269C370.934 269 370.933 269 370.932 269C370.931 269 370.93 269 370.929 269C370.928 269 370.928 269 370.927 269C370.926 269 370.925 269 370.924 269C370.923 269 370.922 269 370.921 269C370.921 269 370.92 269 370.919 269C370.918 269 370.917 269 370.916 269C370.915 269 370.914 269 370.913 269C370.913 269 370.912 269 370.911 269C370.91 269 370.909 269 370.908 269C370.907 269 370.906 269 370.905 269C370.904 269 370.904 269 370.903 269C370.902 269 370.901 269 370.9 269C370.899 269 370.898 269 370.897 269C370.896 269 370.895 269 370.894 269C370.894 269 370.893 269 370.892 269C370.891 269 370.89 269 370.889 269C370.888 269 370.887 269 370.886 269C370.885 269 370.884 269 370.883 269C370.882 269 370.882 269 370.881 269C370.88 269 370.879 269 370.878 269C370.877 269 370.876 269 370.875 269C370.874 269 370.873 269 370.872 269C370.871 269 370.87 269 370.869 269C370.868 269 370.867 269 370.866 269C370.865 269 370.865 269 370.864 269C370.863 269 370.862 269 370.861 269C370.86 269 370.859 269 370.858 269C370.857 269 370.856 269 370.855 269C370.854 269 370.853 269 370.852 269C370.851 269 370.85 269 370.849 269C370.848 269 370.847 269 370.846 269C370.845 269 370.844 269 370.843 269C370.842 269 370.841 269 370.84 269C370.839 269 370.838 269 370.837 269C370.836 269 370.835 269 370.834 269C370.833 269 370.832 269 370.831 269C370.831 269 370.83 269 370.829 269C370.828 269 370.827 269 370.826 269C370.825 269 370.824 269 370.823 269C370.822 269 370.821 269 370.82 269C370.819 269 370.818 269 370.817 269C370.816 269 370.815 269 370.814 269C370.813 269 370.812 269 370.811 269C370.81 269 370.809 269 370.808 269C370.806 269 370.805 269 370.804 269C370.803 269 370.802 269 370.801 269C370.8 269 370.799 269 370.798 269C370.797 269 370.796 269 370.795 269C370.794 269 370.793 269 370.792 269C370.791 269 370.79 269 370.789 269C370.788 269 370.787 269 370.786 269C370.785 269 370.784 269 370.783 269C370.782 269 370.781 269 370.78 269C370.779 269 370.778 269 370.777 269C370.776 269 370.775 269 370.774 269C370.773 269 370.772 269 370.771 269C370.77 269 370.768 269 370.767 269C370.766 269 370.765 269 370.764 269C370.763 269 370.762 269 370.761 269C370.76 269 370.759 269 370.758 269C370.757 269 370.756 269 370.755 269C370.754 269 370.753 269 370.752 269C370.751 269 370.75 269 370.749 269C370.747 269 370.746 269 370.745 269C370.744 269 370.743 269 370.742 269C370.741 269 370.74 269 370.739 269C370.738 269 370.737 269 370.736 269C370.735 269 370.734 269 370.733 269C370.732 269 370.731 269 370.729 269C370.728 269 370.727 269 370.726 269C370.725 269 370.724 269 370.723 269C370.722 269 370.721 269 370.72 269C370.719 269 370.718 269 370.717 269C370.715 269 370.714 269 370.713 269C370.712 269 370.711 269 370.71 269C370.709 269 370.708 269 370.707 269C370.706 269 370.705 269 370.704 269C370.703 269 370.701 269 370.7 269C370.699 269 370.698 269 370.697 269C370.696 269 370.695 269 370.694 269C370.693 269 370.692 269 370.691 269C370.69 269 370.688 269 370.687 269C370.686 269 370.685 269 370.684 269C370.683 269 370.682 269 370.681 269C370.68 269 370.679 269 370.678 269C370.676 269 370.675 269 370.674 269C370.673 269 370.672 269 370.671 269C370.67 269 370.669 269 370.668 269C370.667 269 370.665 269 370.664 269C370.663 269 370.662 269 370.661 269C370.66 269 370.659 269 370.658 269C370.657 269 370.656 269 370.654 269C370.653 269 370.652 269 370.651 269C370.65 269 370.649 269 370.648 269C370.647 269 370.646 269 370.644 269C370.643 269 370.642 269 370.641 269C370.64 269 370.639 269 370.638 269C370.637 269 370.636 269 370.635 269C370.633 269 370.632 269 370.631 269C370.63 269 370.629 269 370.628 269C370.627 269 370.626 269 370.625 269C370.623 269 370.622 269 370.621 269C370.62 269 370.619 269 370.618 269C370.617 269 370.616 269 370.614 269C370.613 269 370.612 269 370.611 269C370.61 269 370.609 269 370.608 269C370.607 269 370.606 269 370.604 269C370.603 269 370.602 269 370.601 269C370.6 269 370.599 269 370.598 269C370.597 269 370.595 269 370.594 269C370.593 269 370.592 269 370.591 269C370.59 269 370.589 269 370.588 269C370.587 269 370.585 269 370.584 269C370.583 269 370.582 269 370.581 269C370.58 269 370.579 269 370.578 269C370.576 269 370.575 269 370.574 269C370.573 269 370.572 269 370.571 269C370.57 269 370.569 269 370.567 269C370.566 269 370.565 269 370.564 269C370.563 269 370.562 269 370.561 269C370.56 269 370.558 269 370.557 269C370.556 269 370.555 269 370.554 269C370.553 269 370.552 269 370.551 269C370.549 269 370.548 269 370.547 269C370.546 269 370.545 269 370.544 269C370.543 269 370.542 269 370.54 269C370.539 269 370.538 269 370.537 269C370.536 269 370.535 269 370.534 269C370.533 269 370.531 269 370.53 269C370.529 269 370.528 269 370.527 269C370.526 269 370.525 269 370.524 269C370.522 269 370.521 269 370.52 269C370.519 269 370.518 269 370.517 269C370.516 269 370.515 269 370.513 269C370.512 269 370.511 269 370.51 269C370.509 269 370.508 269 370.507 269C370.506 269 370.504 269 370.503 269C370.502 269 370.501 269 370.5 269C370.499 269 370.498 269 370.497 269C370.495 269 370.494 269 370.493 269C370.492 269 370.491 269 370.49 269C370.489 269 370.488 269 370.486 269C370.485 269 370.484 269 370.483 269C370.482 269 370.481 269 370.48 269C370.479 269 370.477 269 370.476 269C370.475 269 370.474 269 370.473 269C370.472 269 370.471 269 370.47 269C370.468 269 370.467 269 370.466 269C370.465 269 370.464 269 370.463 269C370.462 269 370.461 269 370.459 269C370.458 269 370.457 269 370.456 269C370.455 269 370.454 269 370.453 269C370.452 269 370.45 269 370.449 269C370.448 269 370.447 269 370.446 269C370.445 269 370.444 269 370.443 269C370.442 269 370.44 269 370.439 269C370.438 269 370.437 269 370.436 269C370.435 269 370.434 269 370.433 269C370.431 269 370.43 269 370.429 269C370.428 269 370.427 269 370.426 269C370.425 269 370.424 269 370.423 269C370.421 269 370.42 269 370.419 269C370.418 269 370.417 269 370.416 269C370.415 269 370.414 269 370.413 269C370.411 269 370.41 269 370.409 269C370.408 269 370.407 269 370.406 269C370.405 269 370.404 269 370.403 269C370.402 269 370.4 269 370.399 269C370.398 269 370.397 269 370.396 269C370.395 269 370.394 269 370.393 269C370.392 269 370.39 269 370.389 269C370.388 269 370.387 269 370.386 269C370.385 269 370.384 269 370.383 269C370.382 269 370.381 269 370.379 269C370.378 269 370.377 269 370.376 269C370.375 269 370.374 269 370.373 269C370.372 269 370.371 269 370.37 269C370.369 269 370.367 269 370.366 269C370.365 269 370.364 269 370.363 269C370.362 269 370.361 269 370.36 269C370.359 269 370.358 269 370.357 269C370.355 269 370.354 269 370.353 269C370.352 269 370.351 269 370.35 269C370.349 269 370.348 269 370.347 269C370.346 269 370.345 269 370.344 269C370.342 269 370.341 269 370.34 269C370.339 269 370.338 269 370.337 269C370.336 269 370.335 269 370.334 269C370.333 269 370.332 269 370.331 269C370.33 269 370.328 269 370.327 269C370.326 269 370.325 269 370.324 269C370.323 269 370.322 269 370.321 269C370.32 269 370.319 269 370.318 269C370.317 269 370.316 269 370.315 269C370.313 269 370.312 269 370.311 269C370.31 269 370.309 269 370.308 269C370.307 269 370.306 269 370.305 269C370.304 269 370.303 269 370.302 269C370.301 269 370.3 269 370.299 269C370.298 269 370.297 269 370.295 269C370.294 269 370.293 269 370.292 269C370.291 269 370.29 269 370.289 269C370.288 269 370.287 269 370.286 269C370.285 269 370.284 269 370.283 269C370.282 269 370.281 269 370.28 269C370.279 269 370.278 269 370.277 269C370.276 269 370.275 269 370.274 269C370.273 269 370.271 269 370.27 269C370.269 269 370.268 269 370.267 269C370.266 269 370.265 269 370.264 269C370.263 269 370.262 269 370.261 269C370.26 269 370.259 269 370.258 269C370.257 269 370.256 269 370.255 269C370.254 269 370.253 269 370.252 269C370.251 269 370.25 269 370.249 269C370.248 269 370.247 269 370.246 269C370.245 269 370.244 269 370.243 269C370.242 269 370.241 269 370.24 269C370.239 269 370.238 269 370.237 269C370.236 269 370.235 269 370.234 269C370.233 269 370.232 269 370.231 269C370.23 269 370.229 269 370.228 269C370.227 269 370.226 269 370.225 269C370.224 269 370.223 269 370.222 269C370.221 269 370.22 269 370.219 269C370.218 269 370.217 269 370.216 269C370.215 269 370.214 269 370.213 269C370.212 269 370.211 269 370.21 269C370.209 269 370.208 269 370.207 269C370.206 269 370.205 269 370.204 269C370.203 269 370.202 269 370.201 269C370.2 269 370.199 269 370.198 269C370.197 269 370.196 269 370.195 269C370.194 269 370.193 269 370.192 269C370.191 269 370.191 269 370.19 269C370.189 269 370.188 269 370.187 269C370.186 269 370.185 269 370.184 269C370.183 269 370.182 269 370.181 269C370.18 269 370.179 269 370.178 269C370.177 269 370.176 269 370.175 269C370.174 269 370.173 269 370.172 269C370.172 269 370.171 269 370.17 269C370.169 269 370.168 269 370.167 269C370.166 269 370.165 269 370.164 269C370.163 269 370.162 269 370.161 269C370.16 269 370.159 269 370.159 269C370.158 269 370.157 269 370.156 269C370.155 269 370.154 269 370.153 269C370.152 269 370.151 269 370.15 269C370.149 269 370.148 269 370.148 269C370.147 269 370.146 269 370.145 269C370.144 269 370.143 269 370.142 269C370.141 269 370.14 269 370.139 269C370.139 269 370.138 269 370.137 269C370.136 269 370.135 269 370.134 269C370.133 269 370.132 269 370.131 269C370.131 269 370.13 269 370.129 269C370.128 269 370.127 269 370.126 269C370.125 269 370.124 269 370.124 269C370.123 269 370.122 269 370.121 269C370.12 269 370.119 269 370.118 269C370.117 269 370.117 269 370.116 269C370.115 269 370.114 269 370.113 269C370.112 269 370.111 269 370.111 269C370.11 269 370.109 269 370.108 269C370.107 269 370.106 269 370.106 269C370.105 269 370.104 269 370.103 269C370.102 269 370.101 269 370.1 269C370.1 269 370.099 269 370.098 269C370.097 269 370.096 269 370.095 269C370.095 269 370.094 269 370.093 269C370.092 269 370.091 269 370.091 269C370.09 269 370.089 269 370.088 269C370.087 269 370.086 269 370.086 269C370.085 269 370.084 269 370.083 269C370.082 269 370.082 269 370.081 269C370.08 269 370.079 269 370.078 269C370.078 269 370.077 269 370.076 269C370.075 269 370.074 269 370.074 269C370.073 269 370.072 269 370.071 269C370.071 269 370.07 269 370.069 269C370.068 269 370.067 269 370.067 269C370.066 269 370.065 269 370.064 269C370.064 269 370.063 269 370.062 269C370.061 269 370.061 269 370.06 269C370.059 269 370.058 269 370.057 269C370.057 269 370.056 269 370.055 269C370.054 269 370.054 269 370.053 269C370.052 269 370.051 269 370.051 269C370.05 269 370.049 269 370.049 269C370.048 269 370.047 269 370.046 269C370.046 269 370.045 269 370.044 269C370.043 269 370.043 269 370.042 269C370.041 269 370.041 269 370.04 269C370.039 269 370.038 269 370.038 269C370.037 269 370.036 269 370.036 269C370.035 269 370.034 269 370.033 269C370.033 269 370.032 269 370.031 269C370.031 269 370.03 269 370.029 269C370.029 269 370.028 269 370.027 269C370.027 269 370.026 269 370.025 269C370.024 269 370.024 269 370.023 269C370.022 269 370.022 269 370.021 269C370.02 269 370.02 269 370.019 269C370.018 269 370.018 269 370.017 269C370.016 269 370.016 269 370.015 269C370.015 269 370.014 269 370.013 269C370.013 269 370.012 269 370.011 269C370.011 269 370.01 269 370.009 269C370.009 269 370.008 269 370.007 269C370.007 269 370.006 269 370.006 269C370.005 269 370.004 269 370.004 269C370.003 269 370.002 269 370.002 269C370.001 269 370.001 269 370 269C369.999 269 369.999 269 369.998 269C369.998 269 369.997 269 369.996 269C369.996 269 369.995 269 369.995 269C369.994 269 369.993 269 369.993 269C369.992 269 369.992 269 369.991 269C369.991 269 369.99 269 369.989 269C369.989 269 369.988 269 369.988 269C369.987 269 369.987 269 369.986 269C369.985 269 369.985 269 369.984 269C369.984 269 369.983 269 369.983 269C369.982 269 369.982 269 369.981 269C369.98 269 369.98 269 369.979 269C369.979 269 369.978 269 369.978 269C369.977 269 369.977 269 369.976 269C369.976 269 369.975 269 369.975 269C369.974 269 369.974 269 369.973 269C369.973 269 369.972 269 369.972 269C369.971 269 369.97 269 369.97 269C369.969 269 369.969 269 369.968 269C369.968 269 369.968 269 369.967 269C369.967 269 369.966 269 369.966 269C369.965 269 369.965 269 369.964 269C369.964 269 369.963 269 369.963 269C369.962 269 369.962 269 369.961 269C369.961 269 369.96 269 369.96 269C369.959 269 369.959 269 369.959 269C369.958 269 369.958 269 369.957 269C369.957 269 369.956 269 369.956 269C369.955 269 369.955 269 369.955 269C369.954 269 369.954 269 369.953 269C369.953 269 369.952 269 369.952 269C369.952 269 369.951 269 369.951 269C369.95 269 369.95 269 369.95 269C369.949 269 369.949 269 369.948 269C369.948 269 369.948 269 369.947 269C369.947 269 369.946 269 369.946 269C369.946 269 369.945 269 369.945 269C369.944 269 369.944 269 369.944 269C369.943 269 369.943 269 369.943 269C369.942 269 369.942 269 369.942 269C369.941 269 369.941 269 369.94 269C369.94 269 369.94 269 369.939 269C369.939 269 369.939 269 369.938 269C369.938 269 369.938 269 369.937 269C369.937 269 369.937 269 369.936 269C369.936 269 369.936 269 369.935 269C369.935 269 369.935 269 369.935 269C369.934 269 369.934 269 369.934 269C369.933 269 369.933 269 369.933 269C369.932 269 369.932 269 369.932 269C369.932 269 369.931 269 369.931 269C369.931 269 369.93 269 369.93 269C369.93 269 369.93 269 369.929 269C369.929 269 369.929 269 369.929 269C369.928 269 369.928 269 369.928 269C369.928 269 369.927 269 369.927 269C369.927 269 369.927 269 369.926 269C369.926 269 369.926 269 369.926 269C369.925 269 369.925 269 369.925 269C369.925 269 369.924 269 369.924 269C369.924 269 369.924 269 369.924 269C369.923 269 369.923 269 369.923 269C369.923 269 369.923 269 369.922 269C369.922 269 369.922 269 369.922 269C369.922 269 369.922 269 369.921 269C369.921 269 369.921 269 369.921 269C369.921 269 369.92 269 369.92 269C369.92 269 369.92 269 369.92 269C369.92 269 369.92 269 369.919 269C369.919 269 369.919 269 369.919 269C369.919 269 369.919 269 369.919 269V211C369.919 211 369.919 211 369.919 211C369.919 211 369.919 211 369.919 211C369.92 211 369.92 211 369.92 211C369.92 211 369.92 211 369.92 211C369.92 211 369.921 211 369.921 211C369.921 211 369.921 211 369.921 211C369.922 211 369.922 211 369.922 211C369.922 211 369.922 211 369.922 211C369.923 211 369.923 211 369.923 211C369.923 211 369.923 211 369.924 211C369.924 211 369.924 211 369.924 211C369.924 211 369.925 211 369.925 211C369.925 211 369.925 211 369.926 211C369.926 211 369.926 211 369.926 211C369.927 211 369.927 211 369.927 211C369.927 211 369.928 211 369.928 211C369.928 211 369.928 211 369.929 211C369.929 211 369.929 211 369.929 211C369.93 211 369.93 211 369.93 211C369.93 211 369.931 211 369.931 211C369.931 211 369.932 211 369.932 211C369.932 211 369.932 211 369.933 211C369.933 211 369.933 211 369.934 211C369.934 211 369.934 211 369.935 211C369.935 211 369.935 211 369.935 211C369.936 211 369.936 211 369.936 211C369.937 211 369.937 211 369.937 211C369.938 211 369.938 211 369.938 211C369.939 211 369.939 211 369.939 211C369.94 211 369.94 211 369.94 211C369.941 211 369.941 211 369.942 211C369.942 211 369.942 211 369.943 211C369.943 211 369.943 211 369.944 211C369.944 211 369.944 211 369.945 211C369.945 211 369.946 211 369.946 211C369.946 211 369.947 211 369.947 211C369.948 211 369.948 211 369.948 211C369.949 211 369.949 211 369.95 211C369.95 211 369.95 211 369.951 211C369.951 211 369.952 211 369.952 211C369.952 211 369.953 211 369.953 211C369.954 211 369.954 211 369.955 211C369.955 211 369.955 211 369.956 211C369.956 211 369.957 211 369.957 211C369.958 211 369.958 211 369.959 211C369.959 211 369.959 211 369.96 211C369.96 211 369.961 211 369.961 211C369.962 211 369.962 211 369.963 211C369.963 211 369.964 211 369.964 211C369.965 211 369.965 211 369.966 211C369.966 211 369.967 211 369.967 211C369.968 211 369.968 211 369.968 211C369.969 211 369.969 211 369.97 211C369.97 211 369.971 211 369.972 211C369.972 211 369.973 211 369.973 211C369.974 211 369.974 211 369.975 211C369.975 211 369.976 211 369.976 211C369.977 211 369.977 211 369.978 211C369.978 211 369.979 211 369.979 211C369.98 211 369.98 211 369.981 211C369.982 211 369.982 211 369.983 211C369.983 211 369.984 211 369.984 211C369.985 211 369.985 211 369.986 211C369.987 211 369.987 211 369.988 211C369.988 211 369.989 211 369.989 211C369.99 211 369.991 211 369.991 211C369.992 211 369.992 211 369.993 211C369.993 211 369.994 211 369.995 211C369.995 211 369.996 211 369.996 211C369.997 211 369.998 211 369.998 211C369.999 211 369.999 211 370 211C370.001 211 370.001 211 370.002 211C370.002 211 370.003 211 370.004 211C370.004 211 370.005 211 370.006 211C370.006 211 370.007 211 370.007 211C370.008 211 370.009 211 370.009 211C370.01 211 370.011 211 370.011 211C370.012 211 370.013 211 370.013 211C370.014 211 370.015 211 370.015 211C370.016 211 370.016 211 370.017 211C370.018 211 370.018 211 370.019 211C370.02 211 370.02 211 370.021 211C370.022 211 370.022 211 370.023 211C370.024 211 370.024 211 370.025 211C370.026 211 370.027 211 370.027 211C370.028 211 370.029 211 370.029 211C370.03 211 370.031 211 370.031 211C370.032 211 370.033 211 370.033 211C370.034 211 370.035 211 370.036 211C370.036 211 370.037 211 370.038 211C370.038 211 370.039 211 370.04 211C370.041 211 370.041 211 370.042 211C370.043 211 370.043 211 370.044 211C370.045 211 370.046 211 370.046 211C370.047 211 370.048 211 370.049 211C370.049 211 370.05 211 370.051 211C370.051 211 370.052 211 370.053 211C370.054 211 370.054 211 370.055 211C370.056 211 370.057 211 370.057 211C370.058 211 370.059 211 370.06 211C370.061 211 370.061 211 370.062 211C370.063 211 370.064 211 370.064 211C370.065 211 370.066 211 370.067 211C370.067 211 370.068 211 370.069 211C370.07 211 370.071 211 370.071 211C370.072 211 370.073 211 370.074 211C370.074 211 370.075 211 370.076 211C370.077 211 370.078 211 370.078 211C370.079 211 370.08 211 370.081 211C370.082 211 370.082 211 370.083 211C370.084 211 370.085 211 370.086 211C370.086 211 370.087 211 370.088 211C370.089 211 370.09 211 370.091 211C370.091 211 370.092 211 370.093 211C370.094 211 370.095 211 370.095 211C370.096 211 370.097 211 370.098 211C370.099 211 370.1 211 370.1 211C370.101 211 370.102 211 370.103 211C370.104 211 370.105 211 370.106 211C370.106 211 370.107 211 370.108 211C370.109 211 370.11 211 370.111 211C370.111 211 370.112 211 370.113 211C370.114 211 370.115 211 370.116 211C370.117 211 370.117 211 370.118 211C370.119 211 370.12 211 370.121 211C370.122 211 370.123 211 370.124 211C370.124 211 370.125 211 370.126 211C370.127 211 370.128 211 370.129 211C370.13 211 370.131 211 370.131 211C370.132 211 370.133 211 370.134 211C370.135 211 370.136 211 370.137 211C370.138 211 370.139 211 370.139 211C370.14 211 370.141 211 370.142 211C370.143 211 370.144 211 370.145 211C370.146 211 370.147 211 370.148 211C370.148 211 370.149 211 370.15 211C370.151 211 370.152 211 370.153 211C370.154 211 370.155 211 370.156 211C370.157 211 370.158 211 370.159 211C370.159 211 370.16 211 370.161 211C370.162 211 370.163 211 370.164 211C370.165 211 370.166 211 370.167 211C370.168 211 370.169 211 370.17 211C370.171 211 370.172 211 370.172 211C370.173 211 370.174 211 370.175 211C370.176 211 370.177 211 370.178 211C370.179 211 370.18 211 370.181 211C370.182 211 370.183 211 370.184 211C370.185 211 370.186 211 370.187 211C370.188 211 370.189 211 370.19 211C370.191 211 370.191 211 370.192 211C370.193 211 370.194 211 370.195 211C370.196 211 370.197 211 370.198 211C370.199 211 370.2 211 370.201 211C370.202 211 370.203 211 370.204 211C370.205 211 370.206 211 370.207 211C370.208 211 370.209 211 370.21 211C370.211 211 370.212 211 370.213 211C370.214 211 370.215 211 370.216 211C370.217 211 370.218 211 370.219 211C370.22 211 370.221 211 370.222 211C370.223 211 370.224 211 370.225 211C370.226 211 370.227 211 370.228 211C370.229 211 370.23 211 370.231 211C370.232 211 370.233 211 370.234 211C370.235 211 370.236 211 370.237 211C370.238 211 370.239 211 370.24 211C370.241 211 370.242 211 370.243 211C370.244 211 370.245 211 370.246 211C370.247 211 370.248 211 370.249 211C370.25 211 370.251 211 370.252 211C370.253 211 370.254 211 370.255 211C370.256 211 370.257 211 370.258 211C370.259 211 370.26 211 370.261 211C370.262 211 370.263 211 370.264 211C370.265 211 370.266 211 370.267 211C370.268 211 370.269 211 370.27 211C370.271 211 370.273 211 370.274 211C370.275 211 370.276 211 370.277 211C370.278 211 370.279 211 370.28 211C370.281 211 370.282 211 370.283 211C370.284 211 370.285 211 370.286 211C370.287 211 370.288 211 370.289 211C370.29 211 370.291 211 370.292 211C370.293 211 370.294 211 370.295 211C370.297 211 370.298 211 370.299 211C370.3 211 370.301 211 370.302 211C370.303 211 370.304 211 370.305 211C370.306 211 370.307 211 370.308 211C370.309 211 370.31 211 370.311 211C370.312 211 370.313 211 370.315 211C370.316 211 370.317 211 370.318 211C370.319 211 370.32 211 370.321 211C370.322 211 370.323 211 370.324 211C370.325 211 370.326 211 370.327 211C370.328 211 370.33 211 370.331 211C370.332 211 370.333 211 370.334 211C370.335 211 370.336 211 370.337 211C370.338 211 370.339 211 370.34 211C370.341 211 370.342 211 370.344 211C370.345 211 370.346 211 370.347 211C370.348 211 370.349 211 370.35 211C370.351 211 370.352 211 370.353 211C370.354 211 370.355 211 370.357 211C370.358 211 370.359 211 370.36 211C370.361 211 370.362 211 370.363 211C370.364 211 370.365 211 370.366 211C370.367 211 370.369 211 370.37 211C370.371 211 370.372 211 370.373 211C370.374 211 370.375 211 370.376 211C370.377 211 370.378 211 370.379 211C370.381 211 370.382 211 370.383 211C370.384 211 370.385 211 370.386 211C370.387 211 370.388 211 370.389 211C370.39 211 370.392 211 370.393 211C370.394 211 370.395 211 370.396 211C370.397 211 370.398 211 370.399 211C370.4 211 370.402 211 370.403 211C370.404 211 370.405 211 370.406 211C370.407 211 370.408 211 370.409 211C370.41 211 370.411 211 370.413 211C370.414 211 370.415 211 370.416 211C370.417 211 370.418 211 370.419 211C370.42 211 370.421 211 370.423 211C370.424 211 370.425 211 370.426 211C370.427 211 370.428 211 370.429 211C370.43 211 370.431 211 370.433 211C370.434 211 370.435 211 370.436 211C370.437 211 370.438 211 370.439 211C370.44 211 370.442 211 370.443 211C370.444 211 370.445 211 370.446 211C370.447 211 370.448 211 370.449 211C370.45 211 370.452 211 370.453 211C370.454 211 370.455 211 370.456 211C370.457 211 370.458 211 370.459 211C370.461 211 370.462 211 370.463 211C370.464 211 370.465 211 370.466 211C370.467 211 370.468 211 370.47 211C370.471 211 370.472 211 370.473 211C370.474 211 370.475 211 370.476 211C370.477 211 370.479 211 370.48 211C370.481 211 370.482 211 370.483 211C370.484 211 370.485 211 370.486 211C370.488 211 370.489 211 370.49 211C370.491 211 370.492 211 370.493 211C370.494 211 370.495 211 370.497 211C370.498 211 370.499 211 370.5 211C370.501 211 370.502 211 370.503 211C370.504 211 370.506 211 370.507 211C370.508 211 370.509 211 370.51 211C370.511 211 370.512 211 370.513 211C370.515 211 370.516 211 370.517 211C370.518 211 370.519 211 370.52 211C370.521 211 370.522 211 370.524 211C370.525 211 370.526 211 370.527 211C370.528 211 370.529 211 370.53 211C370.531 211 370.533 211 370.534 211C370.535 211 370.536 211 370.537 211C370.538 211 370.539 211 370.54 211C370.542 211 370.543 211 370.544 211C370.545 211 370.546 211 370.547 211C370.548 211 370.549 211 370.551 211C370.552 211 370.553 211 370.554 211C370.555 211 370.556 211 370.557 211C370.558 211 370.56 211 370.561 211C370.562 211 370.563 211 370.564 211C370.565 211 370.566 211 370.567 211C370.569 211 370.57 211 370.571 211C370.572 211 370.573 211 370.574 211C370.575 211 370.576 211 370.578 211C370.579 211 370.58 211 370.581 211C370.582 211 370.583 211 370.584 211C370.585 211 370.587 211 370.588 211C370.589 211 370.59 211 370.591 211C370.592 211 370.593 211 370.594 211C370.595 211 370.597 211 370.598 211C370.599 211 370.6 211 370.601 211C370.602 211 370.603 211 370.604 211C370.606 211 370.607 211 370.608 211C370.609 211 370.61 211 370.611 211C370.612 211 370.613 211 370.614 211C370.616 211 370.617 211 370.618 211C370.619 211 370.62 211 370.621 211C370.622 211 370.623 211 370.625 211C370.626 211 370.627 211 370.628 211C370.629 211 370.63 211 370.631 211C370.632 211 370.633 211 370.635 211C370.636 211 370.637 211 370.638 211C370.639 211 370.64 211 370.641 211C370.642 211 370.643 211 370.644 211C370.646 211 370.647 211 370.648 211C370.649 211 370.65 211 370.651 211C370.652 211 370.653 211 370.654 211C370.656 211 370.657 211 370.658 211C370.659 211 370.66 211 370.661 211C370.662 211 370.663 211 370.664 211C370.665 211 370.667 211 370.668 211C370.669 211 370.67 211 370.671 211C370.672 211 370.673 211 370.674 211C370.675 211 370.676 211 370.678 211C370.679 211 370.68 211 370.681 211C370.682 211 370.683 211 370.684 211C370.685 211 370.686 211 370.687 211C370.688 211 370.69 211 370.691 211C370.692 211 370.693 211 370.694 211C370.695 211 370.696 211 370.697 211C370.698 211 370.699 211 370.7 211C370.701 211 370.703 211 370.704 211C370.705 211 370.706 211 370.707 211C370.708 211 370.709 211 370.71 211C370.711 211 370.712 211 370.713 211C370.714 211 370.715 211 370.717 211C370.718 211 370.719 211 370.72 211C370.721 211 370.722 211 370.723 211C370.724 211 370.725 211 370.726 211C370.727 211 370.728 211 370.729 211C370.731 211 370.732 211 370.733 211C370.734 211 370.735 211 370.736 211C370.737 211 370.738 211 370.739 211C370.74 211 370.741 211 370.742 211C370.743 211 370.744 211 370.745 211C370.746 211 370.747 211 370.749 211C370.75 211 370.751 211 370.752 211C370.753 211 370.754 211 370.755 211C370.756 211 370.757 211 370.758 211C370.759 211 370.76 211 370.761 211C370.762 211 370.763 211 370.764 211C370.765 211 370.766 211 370.767 211C370.768 211 370.77 211 370.771 211C370.772 211 370.773 211 370.774 211C370.775 211 370.776 211 370.777 211C370.778 211 370.779 211 370.78 211C370.781 211 370.782 211 370.783 211C370.784 211 370.785 211 370.786 211C370.787 211 370.788 211 370.789 211C370.79 211 370.791 211 370.792 211C370.793 211 370.794 211 370.795 211C370.796 211 370.797 211 370.798 211C370.799 211 370.8 211 370.801 211C370.802 211 370.803 211 370.804 211C370.805 211 370.806 211 370.808 211C370.809 211 370.81 211 370.811 211C370.812 211 370.813 211 370.814 211C370.815 211 370.816 211 370.817 211C370.818 211 370.819 211 370.82 211C370.821 211 370.822 211 370.823 211C370.824 211 370.825 211 370.826 211C370.827 211 370.828 211 370.829 211C370.83 211 370.831 211 370.831 211C370.832 211 370.833 211 370.834 211C370.835 211 370.836 211 370.837 211C370.838 211 370.839 211 370.84 211C370.841 211 370.842 211 370.843 211C370.844 211 370.845 211 370.846 211C370.847 211 370.848 211 370.849 211C370.85 211 370.851 211 370.852 211C370.853 211 370.854 211 370.855 211C370.856 211 370.857 211 370.858 211C370.859 211 370.86 211 370.861 211C370.862 211 370.863 211 370.864 211C370.865 211 370.865 211 370.866 211C370.867 211 370.868 211 370.869 211C370.87 211 370.871 211 370.872 211C370.873 211 370.874 211 370.875 211C370.876 211 370.877 211 370.878 211C370.879 211 370.88 211 370.881 211C370.882 211 370.882 211 370.883 211C370.884 211 370.885 211 370.886 211C370.887 211 370.888 211 370.889 211C370.89 211 370.891 211 370.892 211C370.893 211 370.894 211 370.894 211C370.895 211 370.896 211 370.897 211C370.898 211 370.899 211 370.9 211C370.901 211 370.902 211 370.903 211C370.904 211 370.904 211 370.905 211C370.906 211 370.907 211 370.908 211C370.909 211 370.91 211 370.911 211C370.912 211 370.913 211 370.913 211C370.914 211 370.915 211 370.916 211C370.917 211 370.918 211 370.919 211C370.92 211 370.921 211 370.921 211C370.922 211 370.923 211 370.924 211C370.925 211 370.926 211 370.927 211C370.928 211 370.928 211 370.929 211C370.93 211 370.931 211 370.932 211C370.933 211 370.934 211 370.934 211C370.935 211 370.936 211 370.937 211C370.938 211 370.939 211 370.94 211C370.94 211 370.941 211 370.942 211C370.943 211 370.944 211 370.945 211C370.946 211 370.946 211 370.947 211C370.948 211 370.949 211 370.95 211C370.951 211 370.951 211 370.952 211C370.953 211 370.954 211 370.955 211C370.956 211 370.956 211 370.957 211C370.958 211 370.959 211 370.96 211C370.96 211 370.961 211 370.962 211C370.963 211 370.964 211 370.964 211C370.965 211 370.966 211 370.967 211C370.968 211 370.969 211 370.969 211C370.97 211 370.971 211 370.972 211C370.973 211 370.973 211 370.974 211C370.975 211 370.976 211 370.976 211C370.977 211 370.978 211 370.979 211C370.98 211 370.98 211 370.981 211C370.982 211 370.983 211 370.983 211C370.984 211 370.985 211 370.986 211C370.987 211 370.987 211 370.988 211C370.989 211 370.99 211 370.99 211C370.991 211 370.992 211 370.993 211C370.993 211 370.994 211 370.995 211C370.996 211 370.996 211 370.997 211C370.998 211 370.999 211 370.999 211C371 211 371.001 211 371.002 211C371.002 211 371.003 211 371.004 211C371.004 211 371.005 211 371.006 211C371.007 211 371.007 211 371.008 211C371.009 211 371.01 211 371.01 211C371.011 211 371.012 211 371.012 211C371.013 211 371.014 211 371.014 211C371.015 211 371.016 211 371.017 211C371.017 211 371.018 211 371.019 211C371.019 211 371.02 211 371.021 211C371.021 211 371.022 211 371.023 211C371.023 211 371.024 211 371.025 211C371.026 211 371.026 211 371.027 211C371.028 211 371.028 211 371.029 211C371.03 211 371.03 211 371.031 211C371.032 211 371.032 211 371.033 211C371.034 211 371.034 211 371.035 211C371.035 211 371.036 211 371.037 211C371.037 211 371.038 211 371.039 211C371.039 211 371.04 211 371.041 211C371.041 211 371.042 211 371.043 211C371.043 211 371.044 211 371.044 211C371.045 211 371.046 211 371.046 211C371.047 211 371.047 211 371.048 211C371.049 211 371.049 211 371.05 211C371.051 211 371.051 211 371.052 211C371.052 211 371.053 211 371.054 211C371.054 211 371.055 211 371.055 211C371.056 211 371.056 211 371.057 211C371.058 211 371.058 211 371.059 211C371.059 211 371.06 211 371.061 211C371.061 211 371.062 211 371.062 211C371.063 211 371.063 211 371.064 211C371.065 211 371.065 211 371.066 211C371.066 211 371.067 211 371.067 211C371.068 211 371.068 211 371.069 211C371.069 211 371.07 211 371.071 211C371.071 211 371.072 211 371.072 211C371.073 211 371.073 211 371.074 211C371.074 211 371.075 211 371.075 211C371.076 211 371.076 211 371.077 211C371.077 211 371.078 211 371.078 211C371.079 211 371.079 211 371.08 211C371.08 211 371.081 211 371.081 211C371.082 211 371.082 211 371.083 211C371.083 211 371.084 211 371.084 211C371.085 211 371.085 211 371.086 211C371.086 211 371.087 211 371.087 211C371.088 211 371.088 211 371.089 211C371.089 211 371.089 211 371.09 211C371.09 211 371.091 211 371.091 211C371.092 211 371.092 211 371.093 211C371.093 211 371.093 211 371.094 211C371.094 211 371.095 211 371.095 211C371.096 211 371.096 211 371.097 211C371.097 211 371.097 211 371.098 211C371.098 211 371.099 211 371.099 211C371.099 211 371.1 211 371.1 211C371.101 211 371.101 211 371.101 211C371.102 211 371.102 211 371.103 211C371.103 211 371.103 211 371.104 211C371.104 211 371.105 211 371.105 211C371.105 211 371.106 211 371.106 211C371.106 211 371.107 211 371.107 211C371.107 211 371.108 211 371.108 211C371.109 211 371.109 211 371.109 211C371.11 211 371.11 211 371.11 211C371.111 211 371.111 211 371.111 211C371.112 211 371.112 211 371.112 211C371.113 211 371.113 211 371.113 211C371.114 211 371.114 211 371.114 211C371.115 211 371.115 211 371.115 211C371.115 211 371.116 211 371.116 211C371.116 211 371.117 211 371.117 211C371.117 211 371.118 211 371.118 211C371.118 211 371.118 211 371.119 211C371.119 211 371.119 211 371.12 211C371.12 211 371.12 211 371.12 211C371.121 211 371.121 211 371.121 211C371.121 211 371.122 211 371.122 211C371.122 211 371.122 211 371.123 211C371.123 211 371.123 211 371.123 211C371.124 211 371.124 211 371.124 211C371.124 211 371.124 211 371.125 211C371.125 211 371.125 211 371.125 211C371.126 211 371.126 211 371.126 211C371.126 211 371.126 211 371.127 211C371.127 211 371.127 211 371.127 211C371.127 211 371.128 211 371.128 211C371.128 211 371.128 211 371.128 211C371.128 211 371.129 211 371.129 211C371.129 211 371.129 211 371.129 211C371.129 211 371.13 211 371.13 211C371.13 211 371.13 211 371.13 211C371.13 211 371.13 211 371.131 211C371.131 211 371.131 211 371.131 211C371.131 211 371.131 211 371.131 211C371.131 211 371.132 211 371.132 211C371.132 211 371.132 211 371.132 211V269ZM369.919 269C344.119 269 332.175 279.497 316.216 293.973L277.248 251.013C294.862 235.036 320.972 211 369.919 211V269ZM316.204 293.984C312.377 297.452 307.638 301.782 302.329 306.06L265.935 260.9C269.692 257.872 273.141 254.735 277.26 251.002L316.204 293.984ZM302.348 306.045L300.895 307.218L264.462 262.089L265.916 260.915L302.348 306.045ZM300.865 307.242C291.447 314.825 281.074 323.434 274.274 334.028C268.264 343.391 265.859 352.852 270.287 365.008L215.79 384.859C203.778 351.881 212.093 323.529 225.463 302.699C238.043 283.1 255.711 269.135 264.492 262.065L300.865 307.242ZM270.286 365.006C281.954 397.028 313.227 402.12 327.798 397L347.026 451.72C308.397 465.293 240.364 452.305 215.791 384.861L270.286 365.006ZM327.764 397.012C341.547 392.15 360.959 390.458 367.62 390.043L371.231 447.93C368.6 448.095 363.793 448.517 358.704 449.257C353.258 450.048 349.149 450.971 347.06 451.708L327.764 397.012ZM371.788 390.083C378.15 390.603 397.795 392.682 411.497 397.818L391.14 452.128C389.093 451.361 384.966 450.354 379.474 449.45C374.354 448.608 369.553 448.094 367.062 447.89L371.788 390.083ZM411.495 397.817C413.847 398.699 417.836 399.533 423.145 399.533V457.533C412.347 457.533 401.244 455.914 391.142 452.129L411.495 397.817ZM423.145 399.533C423.145 399.533 423.145 399.533 423.145 399.533C423.145 399.533 423.145 399.533 423.145 399.533C423.145 399.533 423.145 399.533 423.146 399.533C423.146 399.533 423.146 399.533 423.146 399.533C423.146 399.533 423.146 399.533 423.146 399.533C423.146 399.533 423.146 399.533 423.146 399.533C423.146 399.533 423.146 399.533 423.146 399.533C423.146 399.533 423.146 399.533 423.146 399.533C423.146 399.533 423.146 399.533 423.146 399.533C423.146 399.533 423.146 399.533 423.146 399.533C423.146 399.533 423.146 399.533 423.146 399.533C423.146 399.533 423.146 399.533 423.146 399.533C423.146 399.533 423.146 399.533 423.146 399.533C423.146 399.533 423.146 399.533 423.146 399.533C423.146 399.533 423.146 399.533 423.146 399.533C423.146 399.533 423.146 399.533 423.146 399.533C423.147 399.533 423.147 399.533 423.147 399.533C423.147 399.533 423.147 399.533 423.147 399.533C423.147 399.533 423.147 399.533 423.147 399.533C423.147 399.533 423.147 399.533 423.147 399.533C423.147 399.533 423.147 399.533 423.147 399.533C423.147 399.533 423.147 399.533 423.147 399.533C423.147 399.533 423.147 399.533 423.147 399.533C423.147 399.533 423.147 399.533 423.147 399.533C423.147 399.533 423.147 399.533 423.147 399.533C423.147 399.533 423.147 399.533 423.147 399.533C423.147 399.533 423.147 399.533 423.147 399.533C423.147 399.533 423.147 399.533 423.147 399.533C423.147 399.533 423.147 399.533 423.147 399.533C423.147 399.533 423.147 399.533 423.147 399.533C423.148 399.533 423.148 399.533 423.148 399.533C423.148 399.533 423.148 399.533 423.148 399.533C423.148 399.533 423.148 399.533 423.148 399.533C423.148 399.533 423.148 399.533 423.148 399.533C423.148 399.533 423.148 399.533 423.148 399.533C423.148 399.533 423.148 399.533 423.148 399.533C423.148 399.533 423.148 399.533 423.148 399.533C423.148 399.533 423.148 399.533 423.148 399.533C423.148 399.533 423.148 399.533 423.148 399.533C423.148 399.533 423.148 399.533 423.148 399.533C423.148 399.533 423.148 399.533 423.148 399.533C423.148 399.533 423.148 399.533 423.148 399.533C423.148 399.533 423.148 399.533 423.148 399.533C423.148 399.533 423.148 399.533 423.148 399.533C423.148 399.533 423.148 399.533 423.148 399.533C423.149 399.533 423.149 399.533 423.149 399.533C423.149 399.533 423.149 399.533 423.149 399.533C423.149 399.533 423.149 399.533 423.149 399.533C423.149 399.533 423.149 399.533 423.149 399.533C423.149 399.533 423.149 399.533 423.149 399.533C423.149 399.533 423.149 399.533 423.149 399.533C423.149 399.533 423.149 399.533 423.149 399.533C423.149 399.533 423.149 399.533 423.149 399.533C423.149 399.533 423.149 399.533 423.149 399.533C423.149 399.533 423.149 399.533 423.149 399.533C423.149 399.533 423.149 399.533 423.149 399.533C423.149 399.533 423.149 399.533 423.149 399.533C423.149 399.533 423.149 399.533 423.149 399.533C423.149 399.533 423.149 399.533 423.149 399.533C423.149 399.533 423.149 399.533 423.149 399.533C423.149 399.533 423.149 399.533 423.149 399.533C423.15 399.533 423.15 399.533 423.15 399.533C423.15 399.533 423.15 399.533 423.15 399.533C423.15 399.533 423.15 399.533 423.15 399.533C423.15 399.533 423.15 399.533 423.15 399.533C423.15 399.533 423.15 399.533 423.15 399.533C423.15 399.533 423.15 399.533 423.15 399.533C423.15 399.533 423.15 399.533 423.15 399.533C423.15 399.533 423.15 399.533 423.15 399.533C423.15 399.533 423.15 399.533 423.15 399.533C423.15 399.533 423.15 399.533 423.15 399.533C423.15 399.533 423.15 399.533 423.15 399.533C423.15 399.533 423.15 399.533 423.15 399.533C423.15 399.533 423.15 399.533 423.15 399.533C423.15 399.533 423.15 399.533 423.15 399.533C423.15 399.533 423.15 399.533 423.15 399.533C423.15 399.533 423.15 399.533 423.15 399.533C423.15 399.533 423.15 399.533 423.15 399.533C423.15 399.533 423.151 399.533 423.151 399.533C423.151 399.533 423.151 399.533 423.151 399.533C423.151 399.533 423.151 399.533 423.151 399.533C423.151 399.533 423.151 399.533 423.151 399.533C423.151 399.533 423.151 399.533 423.151 399.533C423.151 399.533 423.151 399.533 423.151 399.533C423.151 399.533 423.151 399.533 423.151 399.533C423.151 399.533 423.151 399.533 423.151 399.533C423.151 399.533 423.151 399.533 423.151 399.533C423.151 399.533 423.151 399.533 423.151 399.533C423.151 399.533 423.151 399.533 423.151 399.533C423.151 399.533 423.151 399.533 423.151 399.533C423.151 399.533 423.151 399.533 423.151 399.533C423.151 399.533 423.151 399.533 423.151 399.533C423.151 399.533 423.151 399.533 423.151 399.533C423.151 399.533 423.151 399.533 423.151 399.533C423.151 399.533 423.151 399.533 423.151 399.533C423.151 399.533 423.151 399.533 423.151 399.533C423.151 399.533 423.151 399.533 423.151 399.533C423.152 399.533 423.152 399.533 423.152 399.533C423.152 399.533 423.152 399.533 423.152 399.533C423.152 399.533 423.152 399.533 423.152 399.533C423.152 399.533 423.152 399.533 423.152 399.533C423.152 399.533 423.152 399.533 423.152 399.533C423.152 399.533 423.152 399.533 423.152 399.533C423.152 399.533 423.152 399.533 423.152 399.533C423.152 399.533 423.152 399.533 423.152 399.533C423.152 399.533 423.152 399.533 423.152 399.533C423.152 399.533 423.152 399.533 423.152 399.533C423.152 399.533 423.152 399.533 423.152 399.533C423.152 399.533 423.152 399.533 423.152 399.533C423.152 399.533 423.152 399.533 423.152 399.533C423.152 399.533 423.152 399.533 423.152 399.533C423.152 399.533 423.152 399.533 423.152 399.533C423.152 399.533 423.152 399.533 423.152 399.533C423.152 399.533 423.152 399.533 423.152 399.533C423.152 399.533 423.152 399.533 423.152 399.533C423.152 399.533 423.152 399.533 423.152 399.533C423.152 399.533 423.152 399.533 423.152 399.533C423.152 399.533 423.153 399.533 423.153 399.533C423.153 399.533 423.153 399.533 423.153 399.533C423.153 399.533 423.153 399.533 423.153 399.533C423.153 399.533 423.153 399.533 423.153 399.533C423.153 399.533 423.153 399.533 423.153 399.533C423.153 399.533 423.153 399.533 423.153 399.533C423.153 399.533 423.153 399.533 423.153 399.533C423.153 399.533 423.153 399.533 423.153 399.533C423.153 399.533 423.153 399.533 423.153 399.533C423.153 399.533 423.153 399.533 423.153 399.533C423.153 399.533 423.153 399.533 423.153 399.533C423.153 399.533 423.153 399.533 423.153 399.533C423.153 399.533 423.153 399.533 423.153 399.533C423.153 399.533 423.153 399.533 423.153 399.533C423.153 399.533 423.153 399.533 423.153 399.533C423.153 399.533 423.153 399.533 423.153 399.533C423.153 399.533 423.153 399.533 423.153 399.533C423.153 399.533 423.153 399.533 423.153 399.533C423.153 399.533 423.153 399.533 423.153 399.533C423.153 399.533 423.153 399.533 423.153 399.533C423.153 399.533 423.153 399.533 423.153 399.533C423.153 399.533 423.153 399.533 423.153 399.533C423.153 399.533 423.153 399.533 423.153 399.533C423.153 399.533 423.154 399.533 423.154 399.533C423.154 399.533 423.154 399.533 423.154 399.533C423.154 399.533 423.154 399.533 423.154 399.533C423.154 399.533 423.154 399.533 423.154 399.533C423.154 399.533 423.154 399.533 423.154 399.533C423.154 399.533 423.154 399.533 423.154 399.533C423.154 399.533 423.154 399.533 423.154 399.533C423.154 399.533 423.154 399.533 423.154 399.533C423.154 399.533 423.154 399.533 423.154 399.533C423.154 399.533 423.154 399.533 423.154 399.533C423.154 399.533 423.154 399.533 423.154 399.533C423.154 399.533 423.154 399.533 423.154 399.533C423.154 399.533 423.154 399.533 423.154 399.533C423.154 399.533 423.154 399.533 423.154 399.533C423.154 399.533 423.154 399.533 423.154 399.533C423.154 399.533 423.154 399.533 423.154 399.533C423.154 399.533 423.154 399.533 423.154 399.533C423.154 399.533 423.154 399.533 423.154 399.533C423.154 399.533 423.154 399.533 423.154 399.533C423.154 399.533 423.154 399.533 423.154 399.533C423.154 399.533 423.154 399.533 423.154 399.533C423.154 399.533 423.154 399.533 423.154 399.533C423.154 399.533 423.154 399.533 423.154 399.533C423.154 399.533 423.154 399.533 423.154 399.533C423.154 399.533 423.154 399.533 423.154 399.533C423.154 399.533 423.154 399.533 423.154 399.533C423.154 399.533 423.154 399.533 423.155 399.533C423.155 399.533 423.155 399.533 423.155 399.533C423.155 399.533 423.155 399.533 423.155 399.533C423.155 399.533 423.155 399.533 423.155 399.533C423.155 399.533 423.155 399.533 423.155 399.533C423.155 399.533 423.155 399.533 423.155 399.533C423.155 399.533 423.155 399.533 423.155 399.533C423.155 399.533 423.155 399.533 423.155 399.533C423.155 399.533 423.155 399.533 423.155 399.533C423.155 399.533 423.155 399.533 423.155 399.533C423.155 399.533 423.155 399.533 423.155 399.533C423.155 399.533 423.155 399.533 423.155 399.533C423.155 399.533 423.155 399.533 423.155 399.533C423.155 399.533 423.155 399.533 423.155 399.533C423.155 399.533 423.155 399.533 423.155 399.533C423.155 399.533 423.155 399.533 423.155 399.533C423.155 399.533 423.155 399.533 423.155 399.533C423.155 399.533 423.155 399.533 423.155 399.533C423.155 399.533 423.155 399.533 423.155 399.533C423.155 399.533 423.155 399.533 423.155 399.533C423.155 399.533 423.155 399.533 423.155 399.533C423.155 399.533 423.155 399.533 423.155 399.533C423.155 399.533 423.155 399.533 423.155 399.533C423.155 399.533 423.155 399.533 423.155 399.533C423.155 399.533 423.155 399.533 423.155 399.533C423.155 399.533 423.155 399.533 423.155 399.533C423.155 399.533 423.155 399.533 423.155 399.533C423.155 399.533 423.155 399.533 423.155 399.533C423.155 399.533 423.155 399.533 423.155 399.533C423.155 399.533 423.155 399.533 423.155 399.533C423.155 399.533 423.155 399.533 423.155 399.533C423.155 399.533 423.155 399.533 423.156 399.533C423.156 399.533 423.156 399.533 423.156 399.533C423.156 399.533 423.156 399.533 423.156 399.533C423.156 399.533 423.156 399.533 423.156 399.533C423.156 399.533 423.156 399.533 423.156 399.533C423.156 399.533 423.156 399.533 423.156 399.533C423.156 399.533 423.156 399.533 423.156 399.533C423.156 399.533 423.156 399.533 423.156 399.533C423.156 399.533 423.156 399.533 423.156 399.533C423.156 399.533 423.156 399.533 423.156 399.533C423.156 399.533 423.156 399.533 423.156 399.533C423.156 399.533 423.156 399.533 423.156 399.533C423.156 399.533 423.156 399.533 423.156 399.533C423.156 399.533 423.156 399.533 423.156 399.533C423.156 399.533 423.156 399.533 423.156 399.533C423.156 399.533 423.156 399.533 423.156 399.533C423.156 399.533 423.156 399.533 423.156 399.533C423.156 399.533 423.156 399.533 423.156 399.533C423.156 399.533 423.156 399.533 423.156 399.533C423.156 399.533 423.156 399.533 423.156 399.533C423.156 399.533 423.156 399.533 423.156 399.533C423.156 399.533 423.156 399.533 423.156 399.533C423.156 399.533 423.156 399.533 423.156 399.533C423.156 399.533 423.156 399.533 423.156 399.533C423.156 399.533 423.156 399.533 423.156 399.533C423.156 399.533 423.156 399.533 423.156 399.533C423.156 399.533 423.156 399.533 423.156 399.533C423.156 399.533 423.156 399.533 423.156 399.533C423.156 399.533 423.156 399.533 423.156 399.533C423.156 399.533 423.156 399.533 423.156 399.533C423.156 399.533 423.156 399.533 423.156 399.533C423.156 399.533 423.156 399.533 423.156 399.533C423.156 399.533 423.156 399.533 423.156 399.533C423.156 399.533 423.156 399.533 423.156 399.533C423.156 399.533 423.156 399.533 423.156 399.533C423.156 399.533 423.156 399.533 423.156 399.533C423.156 399.533 423.156 399.533 423.156 399.533C423.156 399.533 423.156 399.533 423.156 399.533C423.156 399.533 423.156 399.533 423.156 399.533C423.156 399.533 423.157 399.533 423.157 399.533C423.157 399.533 423.157 399.533 423.157 399.533C423.157 399.533 423.157 399.533 423.157 399.533C423.157 399.533 423.157 399.533 423.157 399.533C423.157 399.533 423.157 399.533 423.157 399.533C423.157 399.533 423.157 399.533 423.157 399.533C423.157 399.533 423.157 399.533 423.157 399.533C423.157 399.533 423.157 399.533 423.157 399.533C423.157 399.533 423.157 399.533 423.157 399.533C423.157 399.533 423.157 399.533 423.157 399.533C423.157 399.533 423.157 399.533 423.157 399.533C423.157 399.533 423.157 399.533 423.157 399.533C423.157 399.533 423.157 399.533 423.157 399.533C423.157 399.533 423.157 399.533 423.157 399.533C423.157 399.533 423.157 399.533 423.157 399.533C423.157 399.533 423.157 399.533 423.157 399.533C423.157 399.533 423.157 399.533 423.157 399.533C423.157 399.533 423.157 399.533 423.157 399.533C423.157 399.533 423.157 399.533 423.157 399.533C423.157 399.533 423.157 399.533 423.157 399.533C423.157 399.533 423.157 399.533 423.157 399.533C423.157 399.533 423.157 399.533 423.157 399.533C423.157 399.533 423.157 399.533 423.157 399.533C423.157 399.533 423.157 399.533 423.157 399.533C423.157 399.533 423.157 399.533 423.157 399.533C423.157 399.533 423.157 399.533 423.157 399.533C423.157 399.533 423.157 399.533 423.157 399.533C423.157 399.533 423.157 399.533 423.157 399.533C423.157 399.533 423.157 399.533 423.157 399.533C423.157 399.533 423.157 399.533 423.157 399.533C423.157 399.533 423.157 399.533 423.157 399.533C423.157 399.533 423.157 399.533 423.157 399.533C423.157 399.533 423.157 399.533 423.157 399.533C423.157 399.533 423.157 399.533 423.157 399.533C423.157 399.533 423.157 399.533 423.157 399.533C423.157 399.533 423.157 399.533 423.157 399.533C423.157 399.533 423.157 399.533 423.157 399.533C423.157 399.533 423.157 399.533 423.157 399.533C423.157 399.533 423.157 399.533 423.157 399.533C423.157 399.533 423.157 399.533 423.157 399.533C423.157 399.533 423.157 399.533 423.157 399.533C423.157 399.533 423.157 399.533 423.157 399.533C423.157 399.533 423.157 399.533 423.157 399.533C423.157 399.533 423.157 399.533 423.157 399.533C423.157 399.533 423.157 399.533 423.157 399.533C423.157 399.533 423.157 399.533 423.157 399.533C423.157 399.533 423.157 399.533 423.157 399.533C423.157 399.533 423.157 399.533 423.157 399.533C423.157 399.533 423.157 399.533 423.157 399.533C423.157 399.533 423.157 399.533 423.157 399.533C423.157 399.533 423.157 399.533 423.157 399.533C423.157 399.533 423.157 399.533 423.157 399.533C423.157 399.533 423.157 399.533 423.157 399.533C423.157 399.533 423.157 399.533 423.157 399.533C423.157 399.533 423.157 399.533 423.157 399.533C423.158 399.533 423.158 399.533 423.158 399.533C423.158 399.533 423.158 399.533 423.158 399.533C423.158 399.533 423.158 399.533 423.158 399.533C423.158 399.533 423.158 399.533 423.158 399.533C423.158 399.533 423.158 399.533 423.158 399.533C423.158 399.533 423.158 399.533 423.158 399.533C423.158 399.533 423.158 399.533 423.158 399.533C423.158 399.533 423.158 399.533 423.158 399.533C423.158 399.533 423.158 399.533 423.158 399.533C423.158 399.533 423.158 399.533 423.158 399.533C423.158 399.533 423.158 399.533 423.158 399.533C423.158 399.533 423.158 399.533 423.158 399.533C423.158 399.533 423.158 399.533 423.158 399.533C423.158 399.533 423.158 399.533 423.158 399.533C423.158 399.533 423.158 399.533 423.158 399.533C423.158 399.533 423.158 399.533 423.158 399.533C423.158 399.533 423.158 399.533 423.158 399.533C423.158 399.533 423.158 399.533 423.158 399.533C423.158 399.533 423.158 399.533 423.158 399.533C423.158 399.533 423.158 399.533 423.158 399.533C423.158 399.533 423.158 399.533 423.158 399.533C423.158 399.533 423.158 399.533 423.158 399.533C423.158 399.533 423.158 399.533 423.158 399.533C423.158 399.533 423.158 399.533 423.158 399.533C423.158 399.533 423.158 399.533 423.158 399.533C423.158 399.533 423.158 399.533 423.158 399.533C423.158 399.533 423.158 399.533 423.158 399.533C423.158 399.533 423.158 399.533 423.158 399.533C423.158 399.533 423.158 399.533 423.158 399.533C423.158 399.533 423.158 399.533 423.158 399.533C423.158 399.533 423.158 399.533 423.158 399.533C423.158 399.533 423.158 399.533 423.158 399.533C423.158 399.533 423.158 399.533 423.158 399.533C423.158 399.533 423.158 399.533 423.158 399.533C423.158 399.533 423.158 399.533 423.158 399.533C423.158 399.533 423.158 399.533 423.158 399.533C423.158 399.533 423.158 399.533 423.158 399.533C423.158 399.533 423.158 399.533 423.158 399.533C423.158 399.533 423.158 399.533 423.158 399.533C423.158 399.533 423.158 399.533 423.158 399.533C423.158 399.533 423.158 399.533 423.158 399.533C423.158 399.533 423.158 399.533 423.158 399.533C423.158 399.533 423.158 399.533 423.158 399.533C423.158 399.533 423.158 399.533 423.158 399.533C423.158 399.533 423.158 399.533 423.158 399.533C423.158 399.533 423.158 399.533 423.158 399.533C423.158 399.533 423.158 399.533 423.158 399.533C423.158 399.533 423.158 399.533 423.158 399.533C423.158 399.533 423.158 399.533 423.158 399.533C423.158 399.533 423.158 399.533 423.158 399.533C423.158 399.533 423.158 399.533 423.158 399.533C423.158 399.533 423.158 399.533 423.158 399.533C423.158 399.533 423.158 399.533 423.158 399.533C423.158 399.533 423.158 399.533 423.158 399.533C423.158 399.533 423.158 399.533 423.158 399.533C423.158 399.533 423.158 399.533 423.158 399.533C423.158 399.533 423.158 399.533 423.158 399.533C423.158 399.533 423.158 399.533 423.158 399.533C423.158 399.533 423.158 399.533 423.158 399.533C423.158 399.533 423.158 399.533 423.158 399.533C423.158 399.533 423.158 399.533 423.158 399.533C423.158 399.533 423.158 399.533 423.158 399.533C423.158 399.533 423.158 399.533 423.158 399.533C423.158 399.533 423.158 399.533 423.158 399.533C423.158 399.533 423.158 399.533 423.158 399.533C423.158 399.533 423.158 399.533 423.158 399.533C423.158 399.533 423.158 399.533 423.158 399.533C423.158 399.533 423.158 399.533 423.158 399.533C423.158 399.533 423.158 399.533 423.158 399.533C423.158 399.533 423.158 399.533 423.158 399.533C423.158 399.533 423.158 399.533 423.158 399.533C423.158 399.533 423.158 399.533 423.158 399.533C423.158 399.533 423.158 399.533 423.158 399.533C423.158 399.533 423.158 399.533 423.158 399.533C423.158 399.533 423.158 399.533 423.158 399.533C423.158 399.533 423.158 399.533 423.158 399.533C423.158 399.533 423.158 399.533 423.158 399.533C423.158 399.533 423.158 399.533 423.158 399.533C423.158 399.533 423.158 399.533 423.158 399.533C423.158 399.533 423.158 399.533 423.158 399.533C423.158 399.533 423.158 399.533 423.158 399.533C423.158 399.533 423.158 399.533 423.158 399.533C423.158 399.533 423.158 399.533 423.158 399.533C423.158 399.533 423.158 399.533 423.158 399.533C423.158 399.533 423.158 399.533 423.158 399.533C423.158 399.533 423.158 399.533 423.158 399.533C423.158 399.533 423.158 399.533 423.158 399.533C423.158 399.533 423.158 399.533 423.158 399.533C423.158 399.533 423.158 399.533 423.158 399.533C423.158 399.533 423.158 399.533 423.158 399.533C423.158 399.533 423.158 399.533 423.158 399.533C423.158 399.533 423.158 399.533 423.158 399.533C423.158 399.533 423.158 399.533 423.158 399.533C423.158 399.533 423.158 399.533 423.158 399.533C423.158 399.533 423.158 399.533 423.158 399.533C423.158 399.533 423.158 399.533 423.158 399.533C423.158 399.533 423.158 399.533 423.158 399.533C423.158 399.533 423.158 399.533 423.158 399.533C423.158 399.533 423.158 399.533 423.158 399.533C423.158 399.533 423.158 399.533 423.158 399.533C423.158 399.533 423.158 399.533 423.158 399.533C423.158 399.533 423.158 399.533 423.158 399.533C423.158 399.533 423.158 399.533 423.158 399.533C423.158 399.533 423.158 399.533 423.158 399.533C423.158 399.533 423.158 399.533 423.158 399.533C423.158 399.533 423.158 399.533 423.158 399.533C423.158 399.533 423.158 399.533 423.158 399.533C423.158 399.533 423.158 399.533 423.158 399.533C423.158 399.533 423.158 399.533 423.158 399.533C423.158 399.533 423.158 399.533 423.158 399.533C423.158 399.533 423.158 399.533 423.158 399.533C423.158 399.533 423.158 399.533 423.158 399.533C423.158 399.533 423.158 399.533 423.158 399.533C423.158 399.533 423.158 399.533 423.158 399.533C423.158 399.533 423.158 399.533 423.158 399.533C423.158 399.533 423.158 399.533 423.158 399.533C423.158 399.533 423.158 399.533 423.158 399.533C423.158 399.533 423.158 399.533 423.158 399.533C423.158 399.533 423.158 399.533 423.158 399.533C423.158 399.533 423.158 399.533 423.158 399.533C423.158 399.533 423.158 399.533 423.158 399.533C423.158 399.533 423.158 399.533 423.158 399.533C423.158 399.533 423.158 399.533 423.158 399.533C423.158 399.533 423.158 399.533 423.158 399.533C423.158 399.533 423.158 399.533 423.158 399.533C423.158 399.533 423.158 399.533 423.158 399.533C423.158 399.533 423.158 399.533 423.158 399.533C423.158 399.533 423.158 399.533 423.158 399.533C423.158 399.533 423.158 399.533 423.158 399.533C423.158 399.533 423.158 399.533 423.158 399.533C423.158 399.533 423.158 399.533 423.158 399.533C423.158 399.533 423.158 399.533 423.158 399.533C423.158 399.533 423.158 399.533 423.158 399.533C423.158 399.533 423.158 399.533 423.158 399.533C423.158 399.533 423.158 399.533 423.158 399.533C423.158 399.533 423.158 399.533 423.158 399.533C423.158 399.533 423.158 399.533 423.158 399.533C423.158 399.533 423.158 399.533 423.158 399.533C423.158 399.533 423.158 399.533 423.158 399.533C423.158 399.533 423.159 399.533 423.159 399.533C423.159 399.533 423.159 399.533 423.159 399.533C423.159 399.533 423.159 399.533 423.159 399.533C423.159 399.533 423.159 399.533 423.159 399.533C423.159 399.533 423.159 399.533 423.159 399.533C423.159 399.533 423.159 399.533 423.159 399.533C423.159 399.533 423.159 399.533 423.159 399.533C423.159 399.533 423.159 399.533 423.159 399.533C423.159 399.533 423.159 399.533 423.159 399.533C423.159 399.533 423.159 399.533 423.159 399.533C423.159 399.533 423.159 399.533 423.159 399.533C423.159 399.533 423.159 399.533 423.159 399.533C423.159 399.533 423.159 399.533 423.159 399.533C423.159 399.533 423.159 399.533 423.159 399.533C423.159 399.533 423.159 399.533 423.159 399.533C423.159 399.533 423.159 399.533 423.159 399.533C423.159 399.533 423.159 399.533 423.159 399.533C423.159 399.533 423.159 399.533 423.159 399.533C423.159 399.533 423.159 399.533 423.159 399.533C423.159 399.533 423.159 399.533 423.159 399.533C423.159 399.533 423.159 399.533 423.159 399.533C423.159 399.533 423.159 399.533 423.159 399.533C423.159 399.533 423.159 399.533 423.159 399.533C423.159 399.533 423.159 399.533 423.159 399.533C423.159 399.533 423.159 399.533 423.159 399.533C423.159 399.533 423.159 399.533 423.159 399.533C423.159 399.533 423.159 399.533 423.159 399.533C423.159 399.533 423.159 399.533 423.159 399.533C423.159 399.533 423.159 399.533 423.159 399.533C423.159 399.533 423.159 399.533 423.159 399.533C423.159 399.533 423.159 399.533 423.159 399.533C423.159 399.533 423.159 399.533 423.159 399.533C423.159 399.533 423.159 399.533 423.159 399.533C423.159 399.533 423.159 399.533 423.159 399.533C423.159 399.533 423.159 399.533 423.159 399.533C423.159 399.533 423.159 399.533 423.159 399.533C423.159 399.533 423.159 399.533 423.159 399.533C423.159 399.533 423.159 399.533 423.159 399.533C423.159 399.533 423.159 399.533 423.159 399.533C423.159 399.533 423.159 399.533 423.159 399.533C423.159 399.533 423.159 399.533 423.159 399.533C423.159 399.533 423.159 399.533 423.159 399.533C423.159 399.533 423.159 399.533 423.159 399.533C423.159 399.533 423.159 399.533 423.159 399.533C423.159 399.533 423.159 399.533 423.159 399.533C423.159 399.533 423.159 399.533 423.159 399.533C423.159 399.533 423.159 399.533 423.159 399.533C423.159 399.533 423.159 399.533 423.159 399.533C423.159 399.533 423.159 399.533 423.159 399.533C423.159 399.533 423.159 399.533 423.159 399.533C423.159 399.533 423.159 399.533 423.159 399.533C423.159 399.533 423.159 399.533 423.159 399.533C423.159 399.533 423.159 399.533 423.159 399.533C423.159 399.533 423.159 399.533 423.159 399.533C423.159 399.533 423.159 399.533 423.159 399.533C423.159 399.533 423.159 399.533 423.159 399.533C423.159 399.533 423.159 399.533 423.159 399.533C423.159 399.533 423.159 399.533 423.159 399.533C423.159 399.533 423.159 399.533 423.159 399.533C423.159 399.533 423.159 399.533 423.159 399.533C423.159 399.533 423.159 399.533 423.159 399.533C423.159 399.533 423.159 399.533 423.159 399.533C423.159 399.533 423.159 399.533 423.159 399.533C423.159 399.533 423.159 399.533 423.159 399.533C423.159 399.533 423.159 399.533 423.159 399.533C423.159 399.533 423.159 399.533 423.159 399.533C423.159 399.533 423.159 399.533 423.159 399.533C423.159 399.533 423.159 399.533 423.159 399.533C423.159 399.533 423.159 399.533 423.159 399.533C423.159 399.533 423.159 399.533 423.159 399.533C423.159 399.533 423.159 399.533 423.159 399.533C423.159 399.533 423.159 399.533 423.159 399.533C423.159 399.533 423.159 399.533 423.159 399.533C423.159 399.533 423.159 399.533 423.159 399.533C423.159 399.533 423.159 399.533 423.159 399.533C423.159 399.533 423.159 399.533 423.159 399.533C423.159 399.533 423.159 399.533 423.159 399.533C423.159 399.533 423.159 399.533 423.159 399.533C423.159 428.533 423.159 457.533 423.159 457.533C423.159 457.533 423.159 457.533 423.159 457.533C423.159 457.533 423.159 457.533 423.159 457.533C423.159 457.533 423.159 457.533 423.159 428.533C423.159 399.533 423.159 399.533 423.159 399.533C423.159 399.533 423.159 399.533 423.159 399.533C423.159 399.533 423.159 399.533 423.159 399.533C423.159 399.533 423.159 428.533 423.159 457.533C423.159 457.533 423.159 457.533 423.159 457.533C423.159 457.533 423.159 457.533 423.159 457.533C423.159 457.533 423.159 457.533 423.159 457.533C423.159 457.533 423.159 457.533 423.159 457.533C423.159 457.533 423.159 457.533 423.159 457.533C423.159 457.533 423.159 457.533 423.159 457.533C423.159 457.533 423.159 457.533 423.159 457.533C423.159 457.533 423.159 457.533 423.159 457.533C423.159 457.533 423.159 457.533 423.159 457.533C423.159 457.533 423.159 457.533 423.159 457.533C423.159 457.533 423.159 457.533 423.159 457.533C423.159 457.533 423.159 457.533 423.159 457.533C423.159 457.533 423.159 457.533 423.159 457.533C423.159 457.533 423.159 457.533 423.159 457.533C423.159 457.533 423.159 457.533 423.159 457.533C423.159 457.533 423.159 457.533 423.159 457.533C423.159 457.533 423.159 457.533 423.159 457.533C423.159 457.533 423.159 457.533 423.159 457.533C423.159 457.533 423.159 457.533 423.159 457.533C423.159 457.533 423.159 457.533 423.159 457.533C423.159 457.533 423.159 457.533 423.159 457.533C423.159 457.533 423.159 457.533 423.159 457.533C423.159 457.533 423.159 457.533 423.159 457.533C423.159 457.533 423.159 457.533 423.159 457.533C423.159 457.533 423.159 457.533 423.159 457.533C423.159 457.533 423.159 457.533 423.159 457.533C423.159 457.533 423.159 457.533 423.159 457.533C423.159 457.533 423.159 457.533 423.159 457.533C423.159 457.533 423.159 457.533 423.159 457.533C423.159 457.533 423.159 457.533 423.159 457.533C423.159 457.533 423.159 457.533 423.159 457.533C423.159 457.533 423.159 457.533 423.159 457.533C423.159 457.533 423.159 457.533 423.159 457.533C423.159 457.533 423.159 457.533 423.159 457.533C423.159 457.533 423.159 457.533 423.159 457.533C423.159 457.533 423.159 457.533 423.159 457.533C423.159 457.533 423.159 457.533 423.159 457.533C423.159 457.533 423.159 457.533 423.159 457.533C423.159 457.533 423.159 457.533 423.159 457.533C423.159 457.533 423.159 457.533 423.159 457.533C423.159 457.533 423.159 457.533 423.159 457.533C423.159 457.533 423.159 457.533 423.159 457.533C423.159 457.533 423.159 457.533 423.159 457.533C423.159 457.533 423.159 457.533 423.159 457.533C423.159 457.533 423.159 457.533 423.159 457.533C423.159 457.533 423.159 457.533 423.159 457.533C423.159 457.533 423.159 457.533 423.159 457.533C423.159 457.533 423.159 457.533 423.159 457.533C423.159 457.533 423.159 457.533 423.159 457.533C423.159 457.533 423.159 457.533 423.159 457.533C423.159 457.533 423.159 457.533 423.159 457.533C423.159 457.533 423.159 457.533 423.159 457.533C423.159 457.533 423.159 457.533 423.159 457.533C423.159 457.533 423.159 457.533 423.159 457.533C423.159 457.533 423.159 457.533 423.159 457.533C423.159 457.533 423.159 457.533 423.159 457.533C423.159 457.533 423.159 457.533 423.159 457.533C423.159 457.533 423.159 457.533 423.159 457.533C423.159 457.533 423.159 457.533 423.159 457.533C423.159 457.533 423.159 457.533 423.159 457.533C423.159 457.533 423.159 457.533 423.159 457.533C423.159 457.533 423.159 457.533 423.159 457.533C423.159 457.533 423.159 457.533 423.159 457.533C423.159 457.533 423.159 457.533 423.159 457.533C423.159 457.533 423.159 457.533 423.159 457.533C423.159 457.533 423.159 457.533 423.159 457.533C423.159 457.533 423.159 457.533 423.159 457.533C423.159 457.533 423.159 457.533 423.159 457.533C423.159 457.533 423.159 457.533 423.159 457.533C423.159 457.533 423.159 457.533 423.159 457.533C423.159 457.533 423.159 457.533 423.159 457.533C423.159 457.533 423.159 457.533 423.159 457.533C423.159 457.533 423.159 457.533 423.159 457.533C423.159 457.533 423.159 457.533 423.159 457.533C423.159 457.533 423.159 457.533 423.159 457.533C423.159 457.533 423.159 457.533 423.159 457.533C423.159 457.533 423.159 457.533 423.159 457.533C423.159 457.533 423.158 457.533 423.158 457.533C423.158 457.533 423.158 457.533 423.158 457.533C423.158 457.533 423.158 457.533 423.158 457.533C423.158 457.533 423.158 457.533 423.158 457.533C423.158 457.533 423.158 457.533 423.158 457.533C423.158 457.533 423.158 457.533 423.158 457.533C423.158 457.533 423.158 457.533 423.158 457.533C423.158 457.533 423.158 457.533 423.158 457.533C423.158 457.533 423.158 457.533 423.158 457.533C423.158 457.533 423.158 457.533 423.158 457.533C423.158 457.533 423.158 457.533 423.158 457.533C423.158 457.533 423.158 457.533 423.158 457.533C423.158 457.533 423.158 457.533 423.158 457.533C423.158 457.533 423.158 457.533 423.158 457.533C423.158 457.533 423.158 457.533 423.158 457.533C423.158 457.533 423.158 457.533 423.158 457.533C423.158 457.533 423.158 457.533 423.158 457.533C423.158 457.533 423.158 457.533 423.158 457.533C423.158 457.533 423.158 457.533 423.158 457.533C423.158 457.533 423.158 457.533 423.158 457.533C423.158 457.533 423.158 457.533 423.158 457.533C423.158 457.533 423.158 457.533 423.158 457.533C423.158 457.533 423.158 457.533 423.158 457.533C423.158 457.533 423.158 457.533 423.158 457.533C423.158 457.533 423.158 457.533 423.158 457.533C423.158 457.533 423.158 457.533 423.158 457.533C423.158 457.533 423.158 457.533 423.158 457.533C423.158 457.533 423.158 457.533 423.158 457.533C423.158 457.533 423.158 457.533 423.158 457.533C423.158 457.533 423.158 457.533 423.158 457.533C423.158 457.533 423.158 457.533 423.158 457.533C423.158 457.533 423.158 457.533 423.158 457.533C423.158 457.533 423.158 457.533 423.158 457.533C423.158 457.533 423.158 457.533 423.158 457.533C423.158 457.533 423.158 457.533 423.158 457.533C423.158 457.533 423.158 457.533 423.158 457.533C423.158 457.533 423.158 457.533 423.158 457.533C423.158 457.533 423.158 457.533 423.158 457.533C423.158 457.533 423.158 457.533 423.158 457.533C423.158 457.533 423.158 457.533 423.158 457.533C423.158 457.533 423.158 457.533 423.158 457.533C423.158 457.533 423.158 457.533 423.158 457.533C423.158 457.533 423.158 457.533 423.158 457.533C423.158 457.533 423.158 457.533 423.158 457.533C423.158 457.533 423.158 457.533 423.158 457.533C423.158 457.533 423.158 457.533 423.158 457.533C423.158 457.533 423.158 457.533 423.158 457.533C423.158 457.533 423.158 457.533 423.158 457.533C423.158 457.533 423.158 457.533 423.158 457.533C423.158 457.533 423.158 457.533 423.158 457.533C423.158 457.533 423.158 457.533 423.158 457.533C423.158 457.533 423.158 457.533 423.158 457.533C423.158 457.533 423.158 457.533 423.158 457.533C423.158 457.533 423.158 457.533 423.158 457.533C423.158 457.533 423.158 457.533 423.158 457.533C423.158 457.533 423.158 457.533 423.158 457.533C423.158 457.533 423.158 457.533 423.158 457.533C423.158 457.533 423.158 457.533 423.158 457.533C423.158 457.533 423.158 457.533 423.158 457.533C423.158 457.533 423.158 457.533 423.158 457.533C423.158 457.533 423.158 457.533 423.158 457.533C423.158 457.533 423.158 457.533 423.158 457.533C423.158 457.533 423.158 457.533 423.158 457.533C423.158 457.533 423.158 457.533 423.158 457.533C423.158 457.533 423.158 457.533 423.158 457.533C423.158 457.533 423.158 457.533 423.158 457.533C423.158 457.533 423.158 457.533 423.158 457.533C423.158 457.533 423.158 457.533 423.158 457.533C423.158 457.533 423.158 457.533 423.158 457.533C423.158 457.533 423.158 457.533 423.158 457.533C423.158 457.533 423.158 457.533 423.158 457.533C423.158 457.533 423.158 457.533 423.158 457.533C423.158 457.533 423.158 457.533 423.158 457.533C423.158 457.533 423.158 457.533 423.158 457.533C423.158 457.533 423.158 457.533 423.158 457.533C423.158 457.533 423.158 457.533 423.158 457.533C423.158 457.533 423.158 457.533 423.158 457.533C423.158 457.533 423.158 457.533 423.158 457.533C423.158 457.533 423.158 457.533 423.158 457.533C423.158 457.533 423.158 457.533 423.158 457.533C423.158 457.533 423.158 457.533 423.158 457.533C423.158 457.533 423.158 457.533 423.158 457.533C423.158 457.533 423.158 457.533 423.158 457.533C423.158 457.533 423.158 457.533 423.158 457.533C423.158 457.533 423.158 457.533 423.158 457.533C423.158 457.533 423.158 457.533 423.158 457.533C423.158 457.533 423.158 457.533 423.158 457.533C423.158 457.533 423.158 457.533 423.158 457.533C423.158 457.533 423.158 457.533 423.158 457.533C423.158 457.533 423.158 457.533 423.158 457.533C423.158 457.533 423.158 457.533 423.158 457.533C423.158 457.533 423.158 457.533 423.158 457.533C423.158 457.533 423.158 457.533 423.158 457.533C423.158 457.533 423.158 457.533 423.158 457.533C423.158 457.533 423.158 457.533 423.158 457.533C423.158 457.533 423.158 457.533 423.158 457.533C423.158 457.533 423.158 457.533 423.158 457.533C423.158 457.533 423.158 457.533 423.158 457.533C423.158 457.533 423.158 457.533 423.158 457.533C423.158 457.533 423.158 457.533 423.158 457.533C423.158 457.533 423.158 457.533 423.158 457.533C423.158 457.533 423.158 457.533 423.158 457.533C423.158 457.533 423.158 457.533 423.158 457.533C423.158 457.533 423.158 457.533 423.158 457.533C423.158 457.533 423.158 457.533 423.158 457.533C423.158 457.533 423.158 457.533 423.158 457.533C423.158 457.533 423.158 457.533 423.158 457.533C423.158 457.533 423.158 457.533 423.158 457.533C423.158 457.533 423.158 457.533 423.158 457.533C423.158 457.533 423.158 457.533 423.158 457.533C423.158 457.533 423.158 457.533 423.158 457.533C423.158 457.533 423.158 457.533 423.158 457.533C423.158 457.533 423.158 457.533 423.158 457.533C423.158 457.533 423.158 457.533 423.158 457.533C423.158 457.533 423.158 457.533 423.158 457.533C423.158 457.533 423.158 457.533 423.158 457.533C423.158 457.533 423.158 457.533 423.158 457.533C423.158 457.533 423.158 457.533 423.158 457.533C423.158 457.533 423.158 457.533 423.158 457.533C423.158 457.533 423.158 457.533 423.158 457.533C423.158 457.533 423.158 457.533 423.158 457.533C423.158 457.533 423.158 457.533 423.158 457.533C423.158 457.533 423.158 457.533 423.158 457.533C423.158 457.533 423.158 457.533 423.158 457.533C423.158 457.533 423.158 457.533 423.158 457.533C423.158 457.533 423.158 457.533 423.158 457.533C423.158 457.533 423.158 457.533 423.158 457.533C423.158 457.533 423.158 457.533 423.158 457.533C423.158 457.533 423.158 457.533 423.158 457.533C423.158 457.533 423.158 457.533 423.158 457.533C423.158 457.533 423.158 457.533 423.158 457.533C423.158 457.533 423.158 457.533 423.158 457.533C423.158 457.533 423.158 457.533 423.158 457.533C423.158 457.533 423.158 457.533 423.158 457.533C423.158 457.533 423.158 457.533 423.158 457.533C423.158 457.533 423.158 457.533 423.158 457.533C423.158 457.533 423.158 457.533 423.158 457.533C423.158 457.533 423.158 457.533 423.158 457.533C423.158 457.533 423.158 457.533 423.158 457.533C423.158 457.533 423.158 457.533 423.157 457.533C423.157 457.533 423.157 457.533 423.157 457.533C423.157 457.533 423.157 457.533 423.157 457.533C423.157 457.533 423.157 457.533 423.157 457.533C423.157 457.533 423.157 457.533 423.157 457.533C423.157 457.533 423.157 457.533 423.157 457.533C423.157 457.533 423.157 457.533 423.157 457.533C423.157 457.533 423.157 457.533 423.157 457.533C423.157 457.533 423.157 457.533 423.157 457.533C423.157 457.533 423.157 457.533 423.157 457.533C423.157 457.533 423.157 457.533 423.157 457.533C423.157 457.533 423.157 457.533 423.157 457.533C423.157 457.533 423.157 457.533 423.157 457.533C423.157 457.533 423.157 457.533 423.157 457.533C423.157 457.533 423.157 457.533 423.157 457.533C423.157 457.533 423.157 457.533 423.157 457.533C423.157 457.533 423.157 457.533 423.157 457.533C423.157 457.533 423.157 457.533 423.157 457.533C423.157 457.533 423.157 457.533 423.157 457.533C423.157 457.533 423.157 457.533 423.157 457.533C423.157 457.533 423.157 457.533 423.157 457.533C423.157 457.533 423.157 457.533 423.157 457.533C423.157 457.533 423.157 457.533 423.157 457.533C423.157 457.533 423.157 457.533 423.157 457.533C423.157 457.533 423.157 457.533 423.157 457.533C423.157 457.533 423.157 457.533 423.157 457.533C423.157 457.533 423.157 457.533 423.157 457.533C423.157 457.533 423.157 457.533 423.157 457.533C423.157 457.533 423.157 457.533 423.157 457.533C423.157 457.533 423.157 457.533 423.157 457.533C423.157 457.533 423.157 457.533 423.157 457.533C423.157 457.533 423.157 457.533 423.157 457.533C423.157 457.533 423.157 457.533 423.157 457.533C423.157 457.533 423.157 457.533 423.157 457.533C423.157 457.533 423.157 457.533 423.157 457.533C423.157 457.533 423.157 457.533 423.157 457.533C423.157 457.533 423.157 457.533 423.157 457.533C423.157 457.533 423.157 457.533 423.157 457.533C423.157 457.533 423.157 457.533 423.157 457.533C423.157 457.533 423.157 457.533 423.157 457.533C423.157 457.533 423.157 457.533 423.157 457.533C423.157 457.533 423.157 457.533 423.157 457.533C423.157 457.533 423.157 457.533 423.157 457.533C423.157 457.533 423.157 457.533 423.157 457.533C423.157 457.533 423.157 457.533 423.157 457.533C423.157 457.533 423.157 457.533 423.157 457.533C423.157 457.533 423.157 457.533 423.157 457.533C423.157 457.533 423.157 457.533 423.157 457.533C423.157 457.533 423.157 457.533 423.157 457.533C423.157 457.533 423.157 457.533 423.157 457.533C423.157 457.533 423.157 457.533 423.157 457.533C423.157 457.533 423.157 457.533 423.157 457.533C423.157 457.533 423.157 457.533 423.157 457.533C423.157 457.533 423.157 457.533 423.157 457.533C423.157 457.533 423.157 457.533 423.157 457.533C423.157 457.533 423.156 457.533 423.156 457.533C423.156 457.533 423.156 457.533 423.156 457.533C423.156 457.533 423.156 457.533 423.156 457.533C423.156 457.533 423.156 457.533 423.156 457.533C423.156 457.533 423.156 457.533 423.156 457.533C423.156 457.533 423.156 457.533 423.156 457.533C423.156 457.533 423.156 457.533 423.156 457.533C423.156 457.533 423.156 457.533 423.156 457.533C423.156 457.533 423.156 457.533 423.156 457.533C423.156 457.533 423.156 457.533 423.156 457.533C423.156 457.533 423.156 457.533 423.156 457.533C423.156 457.533 423.156 457.533 423.156 457.533C423.156 457.533 423.156 457.533 423.156 457.533C423.156 457.533 423.156 457.533 423.156 457.533C423.156 457.533 423.156 457.533 423.156 457.533C423.156 457.533 423.156 457.533 423.156 457.533C423.156 457.533 423.156 457.533 423.156 457.533C423.156 457.533 423.156 457.533 423.156 457.533C423.156 457.533 423.156 457.533 423.156 457.533C423.156 457.533 423.156 457.533 423.156 457.533C423.156 457.533 423.156 457.533 423.156 457.533C423.156 457.533 423.156 457.533 423.156 457.533C423.156 457.533 423.156 457.533 423.156 457.533C423.156 457.533 423.156 457.533 423.156 457.533C423.156 457.533 423.156 457.533 423.156 457.533C423.156 457.533 423.156 457.533 423.156 457.533C423.156 457.533 423.156 457.533 423.156 457.533C423.156 457.533 423.156 457.533 423.156 457.533C423.156 457.533 423.156 457.533 423.156 457.533C423.156 457.533 423.156 457.533 423.156 457.533C423.156 457.533 423.156 457.533 423.156 457.533C423.156 457.533 423.156 457.533 423.156 457.533C423.156 457.533 423.156 457.533 423.156 457.533C423.156 457.533 423.156 457.533 423.156 457.533C423.156 457.533 423.156 457.533 423.156 457.533C423.156 457.533 423.156 457.533 423.156 457.533C423.156 457.533 423.156 457.533 423.156 457.533C423.156 457.533 423.156 457.533 423.156 457.533C423.156 457.533 423.156 457.533 423.156 457.533C423.155 457.533 423.155 457.533 423.155 457.533C423.155 457.533 423.155 457.533 423.155 457.533C423.155 457.533 423.155 457.533 423.155 457.533C423.155 457.533 423.155 457.533 423.155 457.533C423.155 457.533 423.155 457.533 423.155 457.533C423.155 457.533 423.155 457.533 423.155 457.533C423.155 457.533 423.155 457.533 423.155 457.533C423.155 457.533 423.155 457.533 423.155 457.533C423.155 457.533 423.155 457.533 423.155 457.533C423.155 457.533 423.155 457.533 423.155 457.533C423.155 457.533 423.155 457.533 423.155 457.533C423.155 457.533 423.155 457.533 423.155 457.533C423.155 457.533 423.155 457.533 423.155 457.533C423.155 457.533 423.155 457.533 423.155 457.533C423.155 457.533 423.155 457.533 423.155 457.533C423.155 457.533 423.155 457.533 423.155 457.533C423.155 457.533 423.155 457.533 423.155 457.533C423.155 457.533 423.155 457.533 423.155 457.533C423.155 457.533 423.155 457.533 423.155 457.533C423.155 457.533 423.155 457.533 423.155 457.533C423.155 457.533 423.155 457.533 423.155 457.533C423.155 457.533 423.155 457.533 423.155 457.533C423.155 457.533 423.155 457.533 423.155 457.533C423.155 457.533 423.155 457.533 423.155 457.533C423.155 457.533 423.155 457.533 423.155 457.533C423.155 457.533 423.155 457.533 423.155 457.533C423.155 457.533 423.155 457.533 423.155 457.533C423.155 457.533 423.155 457.533 423.155 457.533C423.155 457.533 423.155 457.533 423.155 457.533C423.155 457.533 423.155 457.533 423.155 457.533C423.155 457.533 423.155 457.533 423.155 457.533C423.154 457.533 423.154 457.533 423.154 457.533C423.154 457.533 423.154 457.533 423.154 457.533C423.154 457.533 423.154 457.533 423.154 457.533C423.154 457.533 423.154 457.533 423.154 457.533C423.154 457.533 423.154 457.533 423.154 457.533C423.154 457.533 423.154 457.533 423.154 457.533C423.154 457.533 423.154 457.533 423.154 457.533C423.154 457.533 423.154 457.533 423.154 457.533C423.154 457.533 423.154 457.533 423.154 457.533C423.154 457.533 423.154 457.533 423.154 457.533C423.154 457.533 423.154 457.533 423.154 457.533C423.154 457.533 423.154 457.533 423.154 457.533C423.154 457.533 423.154 457.533 423.154 457.533C423.154 457.533 423.154 457.533 423.154 457.533C423.154 457.533 423.154 457.533 423.154 457.533C423.154 457.533 423.154 457.533 423.154 457.533C423.154 457.533 423.154 457.533 423.154 457.533C423.154 457.533 423.154 457.533 423.154 457.533C423.154 457.533 423.154 457.533 423.154 457.533C423.154 457.533 423.154 457.533 423.154 457.533C423.154 457.533 423.154 457.533 423.154 457.533C423.154 457.533 423.154 457.533 423.154 457.533C423.154 457.533 423.154 457.533 423.154 457.533C423.154 457.533 423.154 457.533 423.154 457.533C423.154 457.533 423.154 457.533 423.154 457.533C423.154 457.533 423.154 457.533 423.154 457.533C423.154 457.533 423.153 457.533 423.153 457.533C423.153 457.533 423.153 457.533 423.153 457.533C423.153 457.533 423.153 457.533 423.153 457.533C423.153 457.533 423.153 457.533 423.153 457.533C423.153 457.533 423.153 457.533 423.153 457.533C423.153 457.533 423.153 457.533 423.153 457.533C423.153 457.533 423.153 457.533 423.153 457.533C423.153 457.533 423.153 457.533 423.153 457.533C423.153 457.533 423.153 457.533 423.153 457.533C423.153 457.533 423.153 457.533 423.153 457.533C423.153 457.533 423.153 457.533 423.153 457.533C423.153 457.533 423.153 457.533 423.153 457.533C423.153 457.533 423.153 457.533 423.153 457.533C423.153 457.533 423.153 457.533 423.153 457.533C423.153 457.533 423.153 457.533 423.153 457.533C423.153 457.533 423.153 457.533 423.153 457.533C423.153 457.533 423.153 457.533 423.153 457.533C423.153 457.533 423.153 457.533 423.153 457.533C423.153 457.533 423.153 457.533 423.153 457.533C423.153 457.533 423.153 457.533 423.153 457.533C423.153 457.533 423.153 457.533 423.153 457.533C423.153 457.533 423.153 457.533 423.153 457.533C423.153 457.533 423.153 457.533 423.153 457.533C423.153 457.533 423.152 457.533 423.152 457.533C423.152 457.533 423.152 457.533 423.152 457.533C423.152 457.533 423.152 457.533 423.152 457.533C423.152 457.533 423.152 457.533 423.152 457.533C423.152 457.533 423.152 457.533 423.152 457.533C423.152 457.533 423.152 457.533 423.152 457.533C423.152 457.533 423.152 457.533 423.152 457.533C423.152 457.533 423.152 457.533 423.152 457.533C423.152 457.533 423.152 457.533 423.152 457.533C423.152 457.533 423.152 457.533 423.152 457.533C423.152 457.533 423.152 457.533 423.152 457.533C423.152 457.533 423.152 457.533 423.152 457.533C423.152 457.533 423.152 457.533 423.152 457.533C423.152 457.533 423.152 457.533 423.152 457.533C423.152 457.533 423.152 457.533 423.152 457.533C423.152 457.533 423.152 457.533 423.152 457.533C423.152 457.533 423.152 457.533 423.152 457.533C423.152 457.533 423.152 457.533 423.152 457.533C423.152 457.533 423.152 457.533 423.152 457.533C423.152 457.533 423.152 457.533 423.152 457.533C423.152 457.533 423.152 457.533 423.151 457.533C423.151 457.533 423.151 457.533 423.151 457.533C423.151 457.533 423.151 457.533 423.151 457.533C423.151 457.533 423.151 457.533 423.151 457.533C423.151 457.533 423.151 457.533 423.151 457.533C423.151 457.533 423.151 457.533 423.151 457.533C423.151 457.533 423.151 457.533 423.151 457.533C423.151 457.533 423.151 457.533 423.151 457.533C423.151 457.533 423.151 457.533 423.151 457.533C423.151 457.533 423.151 457.533 423.151 457.533C423.151 457.533 423.151 457.533 423.151 457.533C423.151 457.533 423.151 457.533 423.151 457.533C423.151 457.533 423.151 457.533 423.151 457.533C423.151 457.533 423.151 457.533 423.151 457.533C423.151 457.533 423.151 457.533 423.151 457.533C423.151 457.533 423.151 457.533 423.151 457.533C423.151 457.533 423.151 457.533 423.151 457.533C423.151 457.533 423.151 457.533 423.151 457.533C423.151 457.533 423.151 457.533 423.151 457.533C423.151 457.533 423.15 457.533 423.15 457.533C423.15 457.533 423.15 457.533 423.15 457.533C423.15 457.533 423.15 457.533 423.15 457.533C423.15 457.533 423.15 457.533 423.15 457.533C423.15 457.533 423.15 457.533 423.15 457.533C423.15 457.533 423.15 457.533 423.15 457.533C423.15 457.533 423.15 457.533 423.15 457.533C423.15 457.533 423.15 457.533 423.15 457.533C423.15 457.533 423.15 457.533 423.15 457.533C423.15 457.533 423.15 457.533 423.15 457.533C423.15 457.533 423.15 457.533 423.15 457.533C423.15 457.533 423.15 457.533 423.15 457.533C423.15 457.533 423.15 457.533 423.15 457.533C423.15 457.533 423.15 457.533 423.15 457.533C423.15 457.533 423.15 457.533 423.15 457.533C423.15 457.533 423.15 457.533 423.15 457.533C423.15 457.533 423.15 457.533 423.15 457.533C423.15 457.533 423.15 457.533 423.149 457.533C423.149 457.533 423.149 457.533 423.149 457.533C423.149 457.533 423.149 457.533 423.149 457.533C423.149 457.533 423.149 457.533 423.149 457.533C423.149 457.533 423.149 457.533 423.149 457.533C423.149 457.533 423.149 457.533 423.149 457.533C423.149 457.533 423.149 457.533 423.149 457.533C423.149 457.533 423.149 457.533 423.149 457.533C423.149 457.533 423.149 457.533 423.149 457.533C423.149 457.533 423.149 457.533 423.149 457.533C423.149 457.533 423.149 457.533 423.149 457.533C423.149 457.533 423.149 457.533 423.149 457.533C423.149 457.533 423.149 457.533 423.149 457.533C423.149 457.533 423.149 457.533 423.149 457.533C423.149 457.533 423.149 457.533 423.149 457.533C423.149 457.533 423.149 457.533 423.149 457.533C423.149 457.533 423.149 457.533 423.148 457.533C423.148 457.533 423.148 457.533 423.148 457.533C423.148 457.533 423.148 457.533 423.148 457.533C423.148 457.533 423.148 457.533 423.148 457.533C423.148 457.533 423.148 457.533 423.148 457.533C423.148 457.533 423.148 457.533 423.148 457.533C423.148 457.533 423.148 457.533 423.148 457.533C423.148 457.533 423.148 457.533 423.148 457.533C423.148 457.533 423.148 457.533 423.148 457.533C423.148 457.533 423.148 457.533 423.148 457.533C423.148 457.533 423.148 457.533 423.148 457.533C423.148 457.533 423.148 457.533 423.148 457.533C423.148 457.533 423.148 457.533 423.148 457.533C423.148 457.533 423.148 457.533 423.148 457.533C423.148 457.533 423.148 457.533 423.148 457.533C423.148 457.533 423.148 457.533 423.147 457.533C423.147 457.533 423.147 457.533 423.147 457.533C423.147 457.533 423.147 457.533 423.147 457.533C423.147 457.533 423.147 457.533 423.147 457.533C423.147 457.533 423.147 457.533 423.147 457.533C423.147 457.533 423.147 457.533 423.147 457.533C423.147 457.533 423.147 457.533 423.147 457.533C423.147 457.533 423.147 457.533 423.147 457.533C423.147 457.533 423.147 457.533 423.147 457.533C423.147 457.533 423.147 457.533 423.147 457.533C423.147 457.533 423.147 457.533 423.147 457.533C423.147 457.533 423.147 457.533 423.147 457.533C423.147 457.533 423.147 457.533 423.147 457.533C423.147 457.533 423.147 457.533 423.147 457.533C423.147 457.533 423.147 457.533 423.146 457.533C423.146 457.533 423.146 457.533 423.146 457.533C423.146 457.533 423.146 457.533 423.146 457.533C423.146 457.533 423.146 457.533 423.146 457.533C423.146 457.533 423.146 457.533 423.146 457.533C423.146 457.533 423.146 457.533 423.146 457.533C423.146 457.533 423.146 457.533 423.146 457.533C423.146 457.533 423.146 457.533 423.146 457.533C423.146 457.533 423.146 457.533 423.146 457.533C423.146 457.533 423.146 457.533 423.146 457.533C423.146 457.533 423.146 457.533 423.146 457.533C423.146 457.533 423.146 457.533 423.146 457.533C423.146 457.533 423.146 457.533 423.146 457.533C423.146 457.533 423.146 457.533 423.146 457.533C423.145 457.533 423.145 457.533 423.145 457.533C423.145 457.533 423.145 457.533 423.145 457.533C423.145 457.533 423.145 457.533 423.145 457.533V399.533ZM423.159 399.533C439.838 399.533 460.213 391.14 469.557 366.93L523.666 387.816C503.891 439.047 458.399 457.533 423.159 457.533V399.533ZM469.557 366.933C474.217 354.856 471.993 345.346 466.166 335.869C459.575 325.149 449.372 316.342 440.104 308.584L477.333 264.109C485.985 271.351 503.376 285.652 515.574 305.491C528.538 326.574 536.3 355.077 523.667 387.814L469.557 366.933Z" fill="white" mask="url(#path-7-inside-1)"/>
</svg>
