<svg viewBox="0 0 740 845" fill="none" xmlns="http://www.w3.org/2000/svg">
<path d="M137.853 259.627C125.44 274.027 128.4 296.92 144.466 310.76C160.533 324.614 183.613 324.187 196.013 309.8C208.426 295.4 205.466 272.507 189.4 258.654C173.346 244.8 150.266 245.24 137.853 259.627Z" fill="white"/>
<path d="M297.4 183.453C316.386 179.267 328 158.693 323.333 137.507C318.653 116.307 299.48 102.507 280.493 106.693C261.507 110.88 249.893 131.453 254.56 152.653C259.24 173.84 278.413 187.64 297.4 183.453" fill="white"/>
<path d="M508.786 136.08C492.76 125.987 470.64 132.28 459.36 150.174C448.08 168.054 451.92 190.734 467.933 200.84C483.96 210.947 506.08 204.64 517.36 186.76C528.64 168.88 524.8 146.187 508.786 136.08Z" fill="white"/>
<path d="M608.533 338.72C625.8 326.613 631 304.267 620.146 288.8C609.306 273.333 586.52 270.6 569.253 282.707C552 294.814 546.786 317.16 557.64 332.627C568.48 348.094 591.266 350.827 608.533 338.72Z" fill="white"/>
<path d="M442.426 537.32C374.307 556.36 316.706 539.613 315.6 539.28C305.44 536.227 294.666 541.893 291.546 552.053C288.413 562.227 294.12 573.013 304.293 576.147C306.08 576.68 333.893 585.013 374.693 585.013C397.44 585.013 424.24 582.427 452.8 574.44C463.053 571.574 469.04 560.934 466.173 550.694C463.306 540.44 452.706 534.453 442.426 537.32" fill="white"/>
<path d="M694.613 213.213C810.94 338.62 671.733 448.533 630.853 483.32L630.712 483.44C626.204 487.274 621.3 491.444 618.16 494.36C617.04 527.667 629.866 718.453 640.146 841.88L607.226 844.613C595.253 701.013 582.747 514.053 585.627 485.693C585.933 482.653 587.066 479.773 588.92 477.347C592.641 472.46 599.256 466.823 609.236 458.32L609.44 458.147C645.333 427.627 720 364.107 702.453 290.173C684.973 216.493 607.333 206.76 606.546 206.667C601.973 206.147 597.826 203.733 595.107 200.027C592.387 196.32 591.346 191.64 592.213 187.133C592.853 183.733 607.293 102.747 546.173 68.2133C528.96 58.4933 511.733 53.5601 494.946 53.5601C443.56 53.5601 409.147 99.8268 408.8 100.294C405.24 105.147 399.333 107.707 393.346 106.947C387.373 106.187 382.28 102.253 380.066 96.6534C367.586 65.04 331.92 33.04 287.866 33.04C276.493 33.04 264.973 35.16 253.6 39.3199C201.666 56.2533 177.426 96.8801 184.773 153.907C185.466 159.307 183.453 164.72 179.386 168.347C175.32 171.973 169.733 173.347 164.426 172.053C156.387 170.053 148.266 169.04 140.293 169.04C82.7865 169.04 36.3998 222.987 33.3331 271.213C28.0531 354.4 93.7731 413.253 133.413 440.92C138.026 444.133 140.693 449.48 140.466 455.107C139.786 472.653 133.293 632.573 116.413 841.88L83.4798 839.227C98.6931 650.6 105.44 502.333 107.093 462.693C61.4665 429.107 -5.60022 363.2 0.373112 269.12C1.01311 258.973 3.21314 248.653 6.53314 238.453C6.53314 238.453 33.3331 139.12 140.293 136.013C143.68 136.013 147.08 136.147 150.493 136.413C150.053 84.1466 184.773 5.12006 287.866 0C338.093 0 377.52 29.2001 399.053 62.0534C417.76 44.3201 516.47 -20.8799 593.027 63.8401C626.787 101.2 628.44 151.493 626.613 177.093C643.68 181.507 672.866 189.768 694.613 213.213Z" fill="white"/>
<path d="M458.719 286.347L457.292 285.147C452.825 281.4 448.799 277.587 444.892 273.907C428.212 258.187 409.305 240.373 371.132 240C371.079 240 369.985 240 369.919 240C332.545 240 313.519 257.267 296.732 272.493C292.759 276.093 288.665 279.827 284.132 283.48L282.679 284.653C264.479 299.307 226.599 329.8 243.039 374.933C261.159 424.667 310.812 433.707 337.412 424.36C347.012 420.973 362.799 419.4 369.425 418.987C375.785 419.507 391.785 421.4 401.319 424.973C407.545 427.307 415.092 428.533 423.145 428.533C423.159 428.533 423.159 428.533 423.159 428.533C449.119 428.533 482.052 415.093 496.612 377.373C513.905 332.56 476.639 301.347 458.719 286.347" fill="white"/>
</svg>
